<mxfile host="app.diagrams.net" modified="2024-01-24T03:20:26.772Z" agent="Mozilla/5.0 (Windows NT 10.0; Win64; x64) AppleWebKit/537.36 (KHTML, like Gecko) Chrome/120.0.0.0 Safari/537.36" etag="WikB1n7h-vA9hN1qOOqo" version="23.0.0" type="device" pages="3">
  <diagram name="USECASE" id="1oT7VtpavyQXEe0fjs3A">
    <mxGraphModel dx="1687" dy="2087" grid="1" gridSize="10" guides="1" tooltips="1" connect="1" arrows="1" fold="1" page="1" pageScale="1" pageWidth="827" pageHeight="1169" math="0" shadow="0">
      <root>
        <mxCell id="0" />
        <mxCell id="1" parent="0" />
        <mxCell id="70QSGBtpCWmWg1ejvot2-9" value="비회원" style="shape=umlActor;verticalLabelPosition=bottom;verticalAlign=top;html=1;outlineConnect=0;" parent="1" vertex="1">
          <mxGeometry x="100" y="270" width="30" height="60" as="geometry" />
        </mxCell>
        <mxCell id="70QSGBtpCWmWg1ejvot2-10" value="회원" style="shape=umlActor;verticalLabelPosition=bottom;verticalAlign=top;html=1;outlineConnect=0;" parent="1" vertex="1">
          <mxGeometry x="90" y="395" width="30" height="60" as="geometry" />
        </mxCell>
        <mxCell id="70QSGBtpCWmWg1ejvot2-11" value="관리자" style="shape=umlActor;verticalLabelPosition=bottom;verticalAlign=top;html=1;outlineConnect=0;" parent="1" vertex="1">
          <mxGeometry x="910" y="355" width="30" height="60" as="geometry" />
        </mxCell>
        <mxCell id="70QSGBtpCWmWg1ejvot2-17" value="코리아아이티&lt;br&gt;SYSTEM" style="shape=umlFrame;whiteSpace=wrap;html=1;pointerEvents=0;width=90;height=40;" parent="1" vertex="1">
          <mxGeometry x="170" y="-180" width="660" height="1380" as="geometry" />
        </mxCell>
        <mxCell id="70QSGBtpCWmWg1ejvot2-18" value="회원가입" style="ellipse;whiteSpace=wrap;html=1;" parent="1" vertex="1">
          <mxGeometry x="270" y="240" width="60" height="40" as="geometry" />
        </mxCell>
        <mxCell id="70QSGBtpCWmWg1ejvot2-22" value="회원수정" style="ellipse;whiteSpace=wrap;html=1;" parent="1" vertex="1">
          <mxGeometry x="270" y="410" width="60" height="40" as="geometry" />
        </mxCell>
        <mxCell id="70QSGBtpCWmWg1ejvot2-23" value="회원탈퇴" style="ellipse;whiteSpace=wrap;html=1;" parent="1" vertex="1">
          <mxGeometry x="270" y="470" width="60" height="40" as="geometry" />
        </mxCell>
        <mxCell id="70QSGBtpCWmWg1ejvot2-24" value="회원정보조회" style="ellipse;whiteSpace=wrap;html=1;" parent="1" vertex="1">
          <mxGeometry x="270" y="540" width="60" height="40" as="geometry" />
        </mxCell>
        <mxCell id="70QSGBtpCWmWg1ejvot2-25" value="" style="endArrow=none;html=1;rounded=0;entryX=0;entryY=0.5;entryDx=0;entryDy=0;" parent="1" source="70QSGBtpCWmWg1ejvot2-9" target="70QSGBtpCWmWg1ejvot2-18" edge="1">
          <mxGeometry width="50" height="50" relative="1" as="geometry">
            <mxPoint x="390" y="450" as="sourcePoint" />
            <mxPoint x="440" y="400" as="targetPoint" />
          </mxGeometry>
        </mxCell>
        <mxCell id="70QSGBtpCWmWg1ejvot2-26" value="use" style="edgeLabel;html=1;align=center;verticalAlign=middle;resizable=0;points=[];" parent="70QSGBtpCWmWg1ejvot2-25" vertex="1" connectable="0">
          <mxGeometry x="0.1031" y="-1" relative="1" as="geometry">
            <mxPoint as="offset" />
          </mxGeometry>
        </mxCell>
        <mxCell id="70QSGBtpCWmWg1ejvot2-27" value="" style="endArrow=none;html=1;rounded=0;entryX=0.021;entryY=0.686;entryDx=0;entryDy=0;entryPerimeter=0;" parent="1" source="70QSGBtpCWmWg1ejvot2-10" target="70QSGBtpCWmWg1ejvot2-22" edge="1">
          <mxGeometry width="50" height="50" relative="1" as="geometry">
            <mxPoint x="140" y="309" as="sourcePoint" />
            <mxPoint x="280" y="300" as="targetPoint" />
          </mxGeometry>
        </mxCell>
        <mxCell id="70QSGBtpCWmWg1ejvot2-28" value="use" style="edgeLabel;html=1;align=center;verticalAlign=middle;resizable=0;points=[];" parent="70QSGBtpCWmWg1ejvot2-27" vertex="1" connectable="0">
          <mxGeometry x="0.1031" y="-1" relative="1" as="geometry">
            <mxPoint as="offset" />
          </mxGeometry>
        </mxCell>
        <mxCell id="70QSGBtpCWmWg1ejvot2-29" value="" style="endArrow=none;html=1;rounded=0;" parent="1" source="70QSGBtpCWmWg1ejvot2-10" target="70QSGBtpCWmWg1ejvot2-23" edge="1">
          <mxGeometry width="50" height="50" relative="1" as="geometry">
            <mxPoint x="140" y="410" as="sourcePoint" />
            <mxPoint x="290" y="310" as="targetPoint" />
          </mxGeometry>
        </mxCell>
        <mxCell id="70QSGBtpCWmWg1ejvot2-30" value="use" style="edgeLabel;html=1;align=center;verticalAlign=middle;resizable=0;points=[];" parent="70QSGBtpCWmWg1ejvot2-29" vertex="1" connectable="0">
          <mxGeometry x="0.1031" y="-1" relative="1" as="geometry">
            <mxPoint as="offset" />
          </mxGeometry>
        </mxCell>
        <mxCell id="70QSGBtpCWmWg1ejvot2-31" value="" style="endArrow=none;html=1;rounded=0;entryX=0;entryY=0.5;entryDx=0;entryDy=0;" parent="1" source="70QSGBtpCWmWg1ejvot2-10" target="70QSGBtpCWmWg1ejvot2-24" edge="1">
          <mxGeometry width="50" height="50" relative="1" as="geometry">
            <mxPoint x="140" y="426" as="sourcePoint" />
            <mxPoint x="300" y="320" as="targetPoint" />
          </mxGeometry>
        </mxCell>
        <mxCell id="70QSGBtpCWmWg1ejvot2-32" value="use" style="edgeLabel;html=1;align=center;verticalAlign=middle;resizable=0;points=[];" parent="70QSGBtpCWmWg1ejvot2-31" vertex="1" connectable="0">
          <mxGeometry x="0.1031" y="-1" relative="1" as="geometry">
            <mxPoint as="offset" />
          </mxGeometry>
        </mxCell>
        <mxCell id="70QSGBtpCWmWg1ejvot2-35" value="로그인" style="ellipse;whiteSpace=wrap;html=1;" parent="1" vertex="1">
          <mxGeometry x="430" y="430" width="60" height="40" as="geometry" />
        </mxCell>
        <mxCell id="70QSGBtpCWmWg1ejvot2-36" value="" style="endArrow=open;dashed=1;html=1;rounded=0;exitX=1;exitY=0.5;exitDx=0;exitDy=0;entryX=0;entryY=0.5;entryDx=0;entryDy=0;endFill=0;" parent="1" source="70QSGBtpCWmWg1ejvot2-22" target="70QSGBtpCWmWg1ejvot2-35" edge="1">
          <mxGeometry width="50" height="50" relative="1" as="geometry">
            <mxPoint x="390" y="530" as="sourcePoint" />
            <mxPoint x="440" y="480" as="targetPoint" />
          </mxGeometry>
        </mxCell>
        <mxCell id="70QSGBtpCWmWg1ejvot2-42" value="&amp;lt;&amp;lt;include&amp;gt;&amp;gt;" style="edgeLabel;html=1;align=center;verticalAlign=middle;resizable=0;points=[];" parent="70QSGBtpCWmWg1ejvot2-36" vertex="1" connectable="0">
          <mxGeometry x="-0.0863" y="2" relative="1" as="geometry">
            <mxPoint as="offset" />
          </mxGeometry>
        </mxCell>
        <mxCell id="70QSGBtpCWmWg1ejvot2-37" value="" style="endArrow=open;dashed=1;html=1;rounded=0;exitX=0.983;exitY=0.4;exitDx=0;exitDy=0;entryX=-0.017;entryY=0.664;entryDx=0;entryDy=0;exitPerimeter=0;entryPerimeter=0;endFill=0;" parent="1" source="70QSGBtpCWmWg1ejvot2-23" target="70QSGBtpCWmWg1ejvot2-35" edge="1">
          <mxGeometry width="50" height="50" relative="1" as="geometry">
            <mxPoint x="340" y="440" as="sourcePoint" />
            <mxPoint x="440" y="450" as="targetPoint" />
          </mxGeometry>
        </mxCell>
        <mxCell id="70QSGBtpCWmWg1ejvot2-40" value="&amp;lt;&amp;lt;include&amp;gt;&amp;gt;" style="edgeLabel;html=1;align=center;verticalAlign=middle;resizable=0;points=[];" parent="70QSGBtpCWmWg1ejvot2-37" vertex="1" connectable="0">
          <mxGeometry x="-0.202" relative="1" as="geometry">
            <mxPoint as="offset" />
          </mxGeometry>
        </mxCell>
        <mxCell id="70QSGBtpCWmWg1ejvot2-38" value="" style="endArrow=open;dashed=1;html=1;rounded=0;exitX=1;exitY=0.5;exitDx=0;exitDy=0;entryX=0.05;entryY=0.75;entryDx=0;entryDy=0;entryPerimeter=0;endFill=0;" parent="1" source="70QSGBtpCWmWg1ejvot2-24" target="70QSGBtpCWmWg1ejvot2-35" edge="1">
          <mxGeometry width="50" height="50" relative="1" as="geometry">
            <mxPoint x="350" y="450" as="sourcePoint" />
            <mxPoint x="450" y="460" as="targetPoint" />
          </mxGeometry>
        </mxCell>
        <mxCell id="70QSGBtpCWmWg1ejvot2-39" value="&amp;lt;&amp;lt;include&amp;gt;&amp;gt;" style="edgeLabel;html=1;align=center;verticalAlign=middle;resizable=0;points=[];" parent="70QSGBtpCWmWg1ejvot2-38" vertex="1" connectable="0">
          <mxGeometry x="0.473" y="-3" relative="1" as="geometry">
            <mxPoint x="-18" y="19" as="offset" />
          </mxGeometry>
        </mxCell>
        <mxCell id="70QSGBtpCWmWg1ejvot2-43" value="학원소개" style="ellipse;whiteSpace=wrap;html=1;" parent="1" vertex="1">
          <mxGeometry x="270" y="330" width="60" height="40" as="geometry" />
        </mxCell>
        <mxCell id="70QSGBtpCWmWg1ejvot2-44" value="" style="endArrow=none;html=1;rounded=0;entryX=0;entryY=0.25;entryDx=0;entryDy=0;entryPerimeter=0;" parent="1" source="70QSGBtpCWmWg1ejvot2-9" target="70QSGBtpCWmWg1ejvot2-43" edge="1">
          <mxGeometry width="50" height="50" relative="1" as="geometry">
            <mxPoint x="140" y="306" as="sourcePoint" />
            <mxPoint x="300" y="260" as="targetPoint" />
          </mxGeometry>
        </mxCell>
        <mxCell id="70QSGBtpCWmWg1ejvot2-45" value="use" style="edgeLabel;html=1;align=center;verticalAlign=middle;resizable=0;points=[];" parent="70QSGBtpCWmWg1ejvot2-44" vertex="1" connectable="0">
          <mxGeometry x="0.1031" y="-1" relative="1" as="geometry">
            <mxPoint as="offset" />
          </mxGeometry>
        </mxCell>
        <mxCell id="70QSGBtpCWmWg1ejvot2-46" value="" style="endArrow=none;html=1;rounded=0;entryX=-0.007;entryY=0.679;entryDx=0;entryDy=0;entryPerimeter=0;" parent="1" source="70QSGBtpCWmWg1ejvot2-10" target="70QSGBtpCWmWg1ejvot2-43" edge="1">
          <mxGeometry width="50" height="50" relative="1" as="geometry">
            <mxPoint x="140" y="315" as="sourcePoint" />
            <mxPoint x="280" y="360" as="targetPoint" />
          </mxGeometry>
        </mxCell>
        <mxCell id="70QSGBtpCWmWg1ejvot2-47" value="use" style="edgeLabel;html=1;align=center;verticalAlign=middle;resizable=0;points=[];" parent="70QSGBtpCWmWg1ejvot2-46" vertex="1" connectable="0">
          <mxGeometry x="0.1031" y="-1" relative="1" as="geometry">
            <mxPoint as="offset" />
          </mxGeometry>
        </mxCell>
        <mxCell id="70QSGBtpCWmWg1ejvot2-52" value="" style="edgeStyle=orthogonalEdgeStyle;rounded=0;orthogonalLoop=1;jettySize=auto;html=1;endArrow=block;endFill=0;" parent="1" source="70QSGBtpCWmWg1ejvot2-48" target="70QSGBtpCWmWg1ejvot2-43" edge="1">
          <mxGeometry relative="1" as="geometry" />
        </mxCell>
        <mxCell id="70QSGBtpCWmWg1ejvot2-48" value="소개" style="ellipse;whiteSpace=wrap;html=1;" parent="1" vertex="1">
          <mxGeometry x="374" y="300" width="56" height="30" as="geometry" />
        </mxCell>
        <mxCell id="70QSGBtpCWmWg1ejvot2-51" value="" style="edgeStyle=orthogonalEdgeStyle;rounded=0;orthogonalLoop=1;jettySize=auto;html=1;endArrow=block;endFill=0;" parent="1" source="70QSGBtpCWmWg1ejvot2-49" target="70QSGBtpCWmWg1ejvot2-43" edge="1">
          <mxGeometry relative="1" as="geometry" />
        </mxCell>
        <mxCell id="70QSGBtpCWmWg1ejvot2-49" value="연혁" style="ellipse;whiteSpace=wrap;html=1;" parent="1" vertex="1">
          <mxGeometry x="374" y="335" width="56" height="30" as="geometry" />
        </mxCell>
        <mxCell id="70QSGBtpCWmWg1ejvot2-53" value="" style="edgeStyle=orthogonalEdgeStyle;rounded=0;orthogonalLoop=1;jettySize=auto;html=1;endArrow=block;endFill=0;" parent="1" source="70QSGBtpCWmWg1ejvot2-50" target="70QSGBtpCWmWg1ejvot2-43" edge="1">
          <mxGeometry relative="1" as="geometry" />
        </mxCell>
        <mxCell id="70QSGBtpCWmWg1ejvot2-50" value="보도자료" style="ellipse;whiteSpace=wrap;html=1;" parent="1" vertex="1">
          <mxGeometry x="374" y="370" width="56" height="30" as="geometry" />
        </mxCell>
        <mxCell id="70QSGBtpCWmWg1ejvot2-55" value="" style="edgeStyle=orthogonalEdgeStyle;rounded=0;orthogonalLoop=1;jettySize=auto;html=1;endArrow=open;endFill=0;dashed=1;" parent="1" source="70QSGBtpCWmWg1ejvot2-54" target="70QSGBtpCWmWg1ejvot2-43" edge="1">
          <mxGeometry relative="1" as="geometry">
            <Array as="points">
              <mxPoint x="401" y="290" />
              <mxPoint x="300" y="290" />
            </Array>
          </mxGeometry>
        </mxCell>
        <mxCell id="70QSGBtpCWmWg1ejvot2-56" value="&amp;lt;&amp;lt;extends&amp;gt;&amp;gt;" style="edgeLabel;html=1;align=center;verticalAlign=middle;resizable=0;points=[];" parent="70QSGBtpCWmWg1ejvot2-55" vertex="1" connectable="0">
          <mxGeometry x="-0.1642" y="-1" relative="1" as="geometry">
            <mxPoint as="offset" />
          </mxGeometry>
        </mxCell>
        <mxCell id="70QSGBtpCWmWg1ejvot2-54" value="&lt;font style=&quot;font-size: 9px;&quot;&gt;수강료 조회&lt;/font&gt;" style="ellipse;whiteSpace=wrap;html=1;" parent="1" vertex="1">
          <mxGeometry x="374" y="255" width="54" height="30" as="geometry" />
        </mxCell>
        <mxCell id="eNOxvGE6mksWMTdkX6A9-2" value="회원관리" style="ellipse;whiteSpace=wrap;html=1;" parent="1" vertex="1">
          <mxGeometry x="670" y="257.5" width="60" height="40" as="geometry" />
        </mxCell>
        <mxCell id="eNOxvGE6mksWMTdkX6A9-3" value="강사관리" style="ellipse;whiteSpace=wrap;html=1;" parent="1" vertex="1">
          <mxGeometry x="670" y="352.5" width="60" height="40" as="geometry" />
        </mxCell>
        <mxCell id="eNOxvGE6mksWMTdkX6A9-4" value="통계정보" style="ellipse;whiteSpace=wrap;html=1;" parent="1" vertex="1">
          <mxGeometry x="670" y="450" width="60" height="40" as="geometry" />
        </mxCell>
        <mxCell id="eNOxvGE6mksWMTdkX6A9-5" value="" style="endArrow=none;html=1;rounded=0;entryX=1;entryY=1;entryDx=0;entryDy=0;" parent="1" source="70QSGBtpCWmWg1ejvot2-11" target="eNOxvGE6mksWMTdkX6A9-2" edge="1">
          <mxGeometry width="50" height="50" relative="1" as="geometry">
            <mxPoint x="140" y="306" as="sourcePoint" />
            <mxPoint x="280" y="270" as="targetPoint" />
          </mxGeometry>
        </mxCell>
        <mxCell id="eNOxvGE6mksWMTdkX6A9-6" value="use" style="edgeLabel;html=1;align=center;verticalAlign=middle;resizable=0;points=[];" parent="eNOxvGE6mksWMTdkX6A9-5" vertex="1" connectable="0">
          <mxGeometry x="0.1031" y="-1" relative="1" as="geometry">
            <mxPoint as="offset" />
          </mxGeometry>
        </mxCell>
        <mxCell id="eNOxvGE6mksWMTdkX6A9-7" value="" style="endArrow=none;html=1;rounded=0;entryX=0.994;entryY=0.396;entryDx=0;entryDy=0;entryPerimeter=0;" parent="1" source="70QSGBtpCWmWg1ejvot2-11" target="eNOxvGE6mksWMTdkX6A9-3" edge="1">
          <mxGeometry width="50" height="50" relative="1" as="geometry">
            <mxPoint x="780" y="384" as="sourcePoint" />
            <mxPoint x="671" y="304" as="targetPoint" />
          </mxGeometry>
        </mxCell>
        <mxCell id="eNOxvGE6mksWMTdkX6A9-8" value="use" style="edgeLabel;html=1;align=center;verticalAlign=middle;resizable=0;points=[];" parent="eNOxvGE6mksWMTdkX6A9-7" vertex="1" connectable="0">
          <mxGeometry x="0.1031" y="-1" relative="1" as="geometry">
            <mxPoint as="offset" />
          </mxGeometry>
        </mxCell>
        <mxCell id="eNOxvGE6mksWMTdkX6A9-9" value="" style="endArrow=none;html=1;rounded=0;entryX=0.982;entryY=0.314;entryDx=0;entryDy=0;entryPerimeter=0;" parent="1" source="70QSGBtpCWmWg1ejvot2-11" target="eNOxvGE6mksWMTdkX6A9-4" edge="1">
          <mxGeometry width="50" height="50" relative="1" as="geometry">
            <mxPoint x="780" y="393" as="sourcePoint" />
            <mxPoint x="680" y="381" as="targetPoint" />
          </mxGeometry>
        </mxCell>
        <mxCell id="eNOxvGE6mksWMTdkX6A9-10" value="use" style="edgeLabel;html=1;align=center;verticalAlign=middle;resizable=0;points=[];" parent="eNOxvGE6mksWMTdkX6A9-9" vertex="1" connectable="0">
          <mxGeometry x="0.1031" y="-1" relative="1" as="geometry">
            <mxPoint as="offset" />
          </mxGeometry>
        </mxCell>
        <mxCell id="eNOxvGE6mksWMTdkX6A9-14" value="" style="edgeStyle=orthogonalEdgeStyle;rounded=0;orthogonalLoop=1;jettySize=auto;html=1;endArrow=block;endFill=0;" parent="1" source="eNOxvGE6mksWMTdkX6A9-12" target="eNOxvGE6mksWMTdkX6A9-2" edge="1">
          <mxGeometry relative="1" as="geometry">
            <Array as="points">
              <mxPoint x="610" y="277.5" />
            </Array>
          </mxGeometry>
        </mxCell>
        <mxCell id="eNOxvGE6mksWMTdkX6A9-20" value="" style="edgeStyle=orthogonalEdgeStyle;rounded=0;orthogonalLoop=1;jettySize=auto;html=1;endArrow=block;endFill=0;" parent="1" source="eNOxvGE6mksWMTdkX6A9-11" target="eNOxvGE6mksWMTdkX6A9-2" edge="1">
          <mxGeometry relative="1" as="geometry">
            <Array as="points">
              <mxPoint x="620" y="229.5" />
              <mxPoint x="620" y="277.5" />
            </Array>
          </mxGeometry>
        </mxCell>
        <mxCell id="eNOxvGE6mksWMTdkX6A9-29" value="" style="edgeStyle=orthogonalEdgeStyle;rounded=0;orthogonalLoop=1;jettySize=auto;html=1;endArrow=none;endFill=0;startArrow=block;startFill=0;" parent="1" source="eNOxvGE6mksWMTdkX6A9-11" target="eNOxvGE6mksWMTdkX6A9-22" edge="1">
          <mxGeometry relative="1" as="geometry" />
        </mxCell>
        <mxCell id="eNOxvGE6mksWMTdkX6A9-30" value="" style="edgeStyle=orthogonalEdgeStyle;rounded=0;orthogonalLoop=1;jettySize=auto;html=1;endArrow=none;endFill=0;startArrow=block;startFill=0;" parent="1" source="eNOxvGE6mksWMTdkX6A9-11" target="eNOxvGE6mksWMTdkX6A9-21" edge="1">
          <mxGeometry relative="1" as="geometry" />
        </mxCell>
        <mxCell id="eNOxvGE6mksWMTdkX6A9-11" value="회원조회" style="ellipse;whiteSpace=wrap;html=1;" parent="1" vertex="1">
          <mxGeometry x="540" y="207.5" width="60" height="45" as="geometry" />
        </mxCell>
        <mxCell id="eNOxvGE6mksWMTdkX6A9-16" value="" style="edgeStyle=orthogonalEdgeStyle;rounded=0;orthogonalLoop=1;jettySize=auto;html=1;endArrow=block;endFill=0;" parent="1" source="eNOxvGE6mksWMTdkX6A9-13" target="eNOxvGE6mksWMTdkX6A9-2" edge="1">
          <mxGeometry relative="1" as="geometry">
            <Array as="points">
              <mxPoint x="620" y="332.5" />
              <mxPoint x="620" y="277.5" />
            </Array>
          </mxGeometry>
        </mxCell>
        <mxCell id="eNOxvGE6mksWMTdkX6A9-12" value="회원수정" style="ellipse;whiteSpace=wrap;html=1;" parent="1" vertex="1">
          <mxGeometry x="540" y="257.5" width="60" height="40" as="geometry" />
        </mxCell>
        <mxCell id="eNOxvGE6mksWMTdkX6A9-13" value="회원삭제" style="ellipse;whiteSpace=wrap;html=1;" parent="1" vertex="1">
          <mxGeometry x="540" y="307.5" width="60" height="40" as="geometry" />
        </mxCell>
        <mxCell id="eNOxvGE6mksWMTdkX6A9-21" value="키워드" style="ellipse;whiteSpace=wrap;html=1;" parent="1" vertex="1">
          <mxGeometry x="510" y="127.5" width="40" height="45" as="geometry" />
        </mxCell>
        <mxCell id="eNOxvGE6mksWMTdkX6A9-22" value="전체" style="ellipse;whiteSpace=wrap;html=1;" parent="1" vertex="1">
          <mxGeometry x="590" y="127.5" width="40" height="45" as="geometry" />
        </mxCell>
        <mxCell id="eNOxvGE6mksWMTdkX6A9-32" value="수강신청" style="ellipse;whiteSpace=wrap;html=1;" parent="1" vertex="1">
          <mxGeometry x="270" y="60" width="60" height="40" as="geometry" />
        </mxCell>
        <mxCell id="eNOxvGE6mksWMTdkX6A9-33" value="강의조회" style="ellipse;whiteSpace=wrap;html=1;" parent="1" vertex="1">
          <mxGeometry x="270" y="150" width="60" height="40" as="geometry" />
        </mxCell>
        <mxCell id="eNOxvGE6mksWMTdkX6A9-50" value="" style="edgeStyle=orthogonalEdgeStyle;rounded=0;orthogonalLoop=1;jettySize=auto;html=1;endArrow=block;endFill=0;" parent="1" source="eNOxvGE6mksWMTdkX6A9-34" target="eNOxvGE6mksWMTdkX6A9-42" edge="1">
          <mxGeometry relative="1" as="geometry" />
        </mxCell>
        <mxCell id="YK5wTkmuDBtrDPHsWVAm-8" value="" style="edgeStyle=orthogonalEdgeStyle;rounded=0;orthogonalLoop=1;jettySize=auto;html=1;endArrow=none;endFill=0;startArrow=open;startFill=0;dashed=1;dashPattern=8 8;" parent="1" source="eNOxvGE6mksWMTdkX6A9-34" target="eNOxvGE6mksWMTdkX6A9-35" edge="1">
          <mxGeometry relative="1" as="geometry" />
        </mxCell>
        <mxCell id="YK5wTkmuDBtrDPHsWVAm-9" value="&amp;lt;&amp;lt;include&amp;gt;&amp;gt;" style="edgeLabel;html=1;align=center;verticalAlign=middle;resizable=0;points=[];" parent="YK5wTkmuDBtrDPHsWVAm-8" vertex="1" connectable="0">
          <mxGeometry x="0.1357" y="-1" relative="1" as="geometry">
            <mxPoint as="offset" />
          </mxGeometry>
        </mxCell>
        <mxCell id="eNOxvGE6mksWMTdkX6A9-34" value="결제방식" style="ellipse;whiteSpace=wrap;html=1;" parent="1" vertex="1">
          <mxGeometry x="510" y="-20" width="60" height="40" as="geometry" />
        </mxCell>
        <mxCell id="eNOxvGE6mksWMTdkX6A9-35" value="결제 정보&lt;br&gt;확인" style="ellipse;whiteSpace=wrap;html=1;" parent="1" vertex="1">
          <mxGeometry x="510" y="60" width="60" height="40" as="geometry" />
        </mxCell>
        <mxCell id="eNOxvGE6mksWMTdkX6A9-36" value="결제시스템" style="rounded=0;whiteSpace=wrap;html=1;" parent="1" vertex="1">
          <mxGeometry x="860" y="-100" width="120" height="60" as="geometry" />
        </mxCell>
        <mxCell id="eNOxvGE6mksWMTdkX6A9-37" value="" style="endArrow=none;html=1;rounded=0;entryX=0;entryY=0.5;entryDx=0;entryDy=0;exitX=1;exitY=0.5;exitDx=0;exitDy=0;" parent="1" source="eNOxvGE6mksWMTdkX6A9-35" target="eNOxvGE6mksWMTdkX6A9-36" edge="1">
          <mxGeometry width="50" height="50" relative="1" as="geometry">
            <mxPoint x="640" y="20" as="sourcePoint" />
            <mxPoint x="600" y="-30" as="targetPoint" />
          </mxGeometry>
        </mxCell>
        <mxCell id="eNOxvGE6mksWMTdkX6A9-38" value="use" style="edgeLabel;html=1;align=center;verticalAlign=middle;resizable=0;points=[];" parent="eNOxvGE6mksWMTdkX6A9-37" vertex="1" connectable="0">
          <mxGeometry x="-0.0728" y="-2" relative="1" as="geometry">
            <mxPoint as="offset" />
          </mxGeometry>
        </mxCell>
        <mxCell id="eNOxvGE6mksWMTdkX6A9-45" value="" style="edgeStyle=orthogonalEdgeStyle;rounded=0;orthogonalLoop=1;jettySize=auto;html=1;endArrow=block;endFill=0;" parent="1" source="eNOxvGE6mksWMTdkX6A9-41" target="eNOxvGE6mksWMTdkX6A9-32" edge="1">
          <mxGeometry relative="1" as="geometry" />
        </mxCell>
        <mxCell id="eNOxvGE6mksWMTdkX6A9-41" value="강의상세 조회" style="ellipse;whiteSpace=wrap;html=1;" parent="1" vertex="1">
          <mxGeometry x="370" y="60" width="60" height="40" as="geometry" />
        </mxCell>
        <mxCell id="eNOxvGE6mksWMTdkX6A9-46" value="" style="edgeStyle=orthogonalEdgeStyle;rounded=0;orthogonalLoop=1;jettySize=auto;html=1;endArrow=block;endFill=0;" parent="1" source="eNOxvGE6mksWMTdkX6A9-42" target="eNOxvGE6mksWMTdkX6A9-41" edge="1">
          <mxGeometry relative="1" as="geometry" />
        </mxCell>
        <mxCell id="eNOxvGE6mksWMTdkX6A9-42" value="결제 요청" style="ellipse;whiteSpace=wrap;html=1;" parent="1" vertex="1">
          <mxGeometry x="410" y="-20" width="60" height="40" as="geometry" />
        </mxCell>
        <mxCell id="eNOxvGE6mksWMTdkX6A9-43" value="" style="endArrow=open;dashed=1;html=1;rounded=0;exitX=0.971;exitY=0.684;exitDx=0;exitDy=0;entryX=0.5;entryY=0;entryDx=0;entryDy=0;endFill=0;exitPerimeter=0;" parent="1" source="eNOxvGE6mksWMTdkX6A9-32" target="70QSGBtpCWmWg1ejvot2-35" edge="1">
          <mxGeometry width="50" height="50" relative="1" as="geometry">
            <mxPoint x="340" y="440" as="sourcePoint" />
            <mxPoint x="440" y="460" as="targetPoint" />
            <Array as="points">
              <mxPoint x="470" y="200" />
            </Array>
          </mxGeometry>
        </mxCell>
        <mxCell id="eNOxvGE6mksWMTdkX6A9-44" value="&amp;lt;&amp;lt;include&amp;gt;&amp;gt;" style="edgeLabel;html=1;align=center;verticalAlign=middle;resizable=0;points=[];" parent="eNOxvGE6mksWMTdkX6A9-43" vertex="1" connectable="0">
          <mxGeometry x="-0.0863" y="2" relative="1" as="geometry">
            <mxPoint x="-2" y="23" as="offset" />
          </mxGeometry>
        </mxCell>
        <mxCell id="eNOxvGE6mksWMTdkX6A9-49" value="" style="edgeStyle=orthogonalEdgeStyle;rounded=0;orthogonalLoop=1;jettySize=auto;html=1;endArrow=block;endFill=0;" parent="1" source="eNOxvGE6mksWMTdkX6A9-48" target="eNOxvGE6mksWMTdkX6A9-41" edge="1">
          <mxGeometry relative="1" as="geometry" />
        </mxCell>
        <mxCell id="eNOxvGE6mksWMTdkX6A9-48" value="장바구니" style="ellipse;whiteSpace=wrap;html=1;" parent="1" vertex="1">
          <mxGeometry x="330" y="-20" width="60" height="40" as="geometry" />
        </mxCell>
        <mxCell id="eNOxvGE6mksWMTdkX6A9-54" value="" style="edgeStyle=orthogonalEdgeStyle;rounded=0;orthogonalLoop=1;jettySize=auto;html=1;endArrow=block;endFill=0;" parent="1" source="eNOxvGE6mksWMTdkX6A9-51" target="eNOxvGE6mksWMTdkX6A9-34" edge="1">
          <mxGeometry relative="1" as="geometry">
            <Array as="points">
              <mxPoint x="485" y="-40" />
              <mxPoint x="540" y="-40" />
            </Array>
          </mxGeometry>
        </mxCell>
        <mxCell id="eNOxvGE6mksWMTdkX6A9-51" value="신용카드&lt;br&gt;" style="ellipse;whiteSpace=wrap;html=1;" parent="1" vertex="1">
          <mxGeometry x="460" y="-90" width="50" height="40" as="geometry" />
        </mxCell>
        <mxCell id="eNOxvGE6mksWMTdkX6A9-56" value="" style="edgeStyle=orthogonalEdgeStyle;rounded=0;orthogonalLoop=1;jettySize=auto;html=1;endArrow=block;endFill=0;" parent="1" source="eNOxvGE6mksWMTdkX6A9-53" target="eNOxvGE6mksWMTdkX6A9-34" edge="1">
          <mxGeometry relative="1" as="geometry" />
        </mxCell>
        <mxCell id="eNOxvGE6mksWMTdkX6A9-61" value="" style="edgeStyle=orthogonalEdgeStyle;rounded=0;orthogonalLoop=1;jettySize=auto;html=1;endArrow=block;endFill=0;" parent="1" source="eNOxvGE6mksWMTdkX6A9-52" target="eNOxvGE6mksWMTdkX6A9-34" edge="1">
          <mxGeometry relative="1" as="geometry">
            <Array as="points">
              <mxPoint x="540" y="-40" />
            </Array>
          </mxGeometry>
        </mxCell>
        <mxCell id="eNOxvGE6mksWMTdkX6A9-52" value="휴대폰" style="ellipse;whiteSpace=wrap;html=1;" parent="1" vertex="1">
          <mxGeometry x="570" y="-90" width="50" height="40" as="geometry" />
        </mxCell>
        <mxCell id="eNOxvGE6mksWMTdkX6A9-55" value="" style="edgeStyle=orthogonalEdgeStyle;rounded=0;orthogonalLoop=1;jettySize=auto;html=1;endArrow=block;endFill=0;" parent="1" source="eNOxvGE6mksWMTdkX6A9-53" target="eNOxvGE6mksWMTdkX6A9-34" edge="1">
          <mxGeometry relative="1" as="geometry" />
        </mxCell>
        <mxCell id="eNOxvGE6mksWMTdkX6A9-53" value="무통장" style="ellipse;whiteSpace=wrap;html=1;" parent="1" vertex="1">
          <mxGeometry x="515" y="-90" width="50" height="40" as="geometry" />
        </mxCell>
        <mxCell id="YK5wTkmuDBtrDPHsWVAm-1" value="월별" style="ellipse;whiteSpace=wrap;html=1;" parent="1" vertex="1">
          <mxGeometry x="570" y="415" width="60" height="40" as="geometry" />
        </mxCell>
        <mxCell id="YK5wTkmuDBtrDPHsWVAm-2" value="일별" style="ellipse;whiteSpace=wrap;html=1;" parent="1" vertex="1">
          <mxGeometry x="570" y="470" width="60" height="40" as="geometry" />
        </mxCell>
        <mxCell id="YK5wTkmuDBtrDPHsWVAm-3" value="주별" style="ellipse;whiteSpace=wrap;html=1;" parent="1" vertex="1">
          <mxGeometry x="570" y="530" width="60" height="40" as="geometry" />
        </mxCell>
        <mxCell id="OlmXwW9FOO7Vl2J3PmAH-1" value="강의정보&lt;br&gt;관리" style="ellipse;whiteSpace=wrap;html=1;" vertex="1" parent="1">
          <mxGeometry x="670" y="530" width="60" height="40" as="geometry" />
        </mxCell>
        <mxCell id="OlmXwW9FOO7Vl2J3PmAH-2" value="" style="endArrow=none;html=1;rounded=0;entryX=1;entryY=0.5;entryDx=0;entryDy=0;" edge="1" parent="1" source="70QSGBtpCWmWg1ejvot2-11" target="OlmXwW9FOO7Vl2J3PmAH-1">
          <mxGeometry width="50" height="50" relative="1" as="geometry">
            <mxPoint x="931" y="407" as="sourcePoint" />
            <mxPoint x="760" y="490" as="targetPoint" />
          </mxGeometry>
        </mxCell>
        <mxCell id="OlmXwW9FOO7Vl2J3PmAH-3" value="use" style="edgeLabel;html=1;align=center;verticalAlign=middle;resizable=0;points=[];" vertex="1" connectable="0" parent="OlmXwW9FOO7Vl2J3PmAH-2">
          <mxGeometry x="0.1031" y="-1" relative="1" as="geometry">
            <mxPoint as="offset" />
          </mxGeometry>
        </mxCell>
        <mxCell id="OlmXwW9FOO7Vl2J3PmAH-4" value="추가" style="ellipse;whiteSpace=wrap;html=1;" vertex="1" parent="1">
          <mxGeometry x="550" y="600" width="60" height="40" as="geometry" />
        </mxCell>
        <mxCell id="OlmXwW9FOO7Vl2J3PmAH-5" value="수정" style="ellipse;whiteSpace=wrap;html=1;" vertex="1" parent="1">
          <mxGeometry x="620" y="600" width="60" height="40" as="geometry" />
        </mxCell>
        <mxCell id="OlmXwW9FOO7Vl2J3PmAH-6" value="조회" style="ellipse;whiteSpace=wrap;html=1;" vertex="1" parent="1">
          <mxGeometry x="690" y="600" width="60" height="40" as="geometry" />
        </mxCell>
        <mxCell id="OlmXwW9FOO7Vl2J3PmAH-7" value="삭제" style="ellipse;whiteSpace=wrap;html=1;" vertex="1" parent="1">
          <mxGeometry x="760" y="600" width="60" height="40" as="geometry" />
        </mxCell>
        <mxCell id="OlmXwW9FOO7Vl2J3PmAH-9" value="전체" style="ellipse;whiteSpace=wrap;html=1;" vertex="1" parent="1">
          <mxGeometry x="660" y="670" width="40" height="45" as="geometry" />
        </mxCell>
        <mxCell id="OlmXwW9FOO7Vl2J3PmAH-10" value="부분" style="ellipse;whiteSpace=wrap;html=1;" vertex="1" parent="1">
          <mxGeometry x="710" y="670" width="40" height="45" as="geometry" />
        </mxCell>
      </root>
    </mxGraphModel>
  </diagram>
  <diagram id="KGv_wyX2wOtL3iam9sIP" name="요구사항정리">
    <mxGraphModel dx="3163" dy="821" grid="1" gridSize="10" guides="1" tooltips="1" connect="1" arrows="1" fold="1" page="1" pageScale="1" pageWidth="827" pageHeight="1169" math="0" shadow="0">
      <root>
        <mxCell id="0" />
        <mxCell id="1" parent="0" />
        <mxCell id="GZiHN858R7NsV17_iSoU-1" value="서비스별 기능정리 - 기능적 요구사항 ( C : create, R : Read, U : update, D : Delete, BL : Business Logic)" style="rounded=0;whiteSpace=wrap;html=1;align=left;" vertex="1" parent="1">
          <mxGeometry x="-1630" y="40" width="1970" height="30" as="geometry" />
        </mxCell>
        <mxCell id="GZiHN858R7NsV17_iSoU-2" value="강의 서비스" style="rounded=0;whiteSpace=wrap;html=1;" vertex="1" parent="1">
          <mxGeometry x="-1630" y="90" width="230" height="50" as="geometry" />
        </mxCell>
        <mxCell id="GZiHN858R7NsV17_iSoU-3" value="회원 서비스" style="rounded=0;whiteSpace=wrap;html=1;" vertex="1" parent="1">
          <mxGeometry x="-1310" y="90" width="230" height="50" as="geometry" />
        </mxCell>
        <mxCell id="GZiHN858R7NsV17_iSoU-4" value="&lt;div style=&quot;text-align: left;&quot;&gt;&lt;span style=&quot;background-color: initial;&quot;&gt;[관리 영역]&lt;/span&gt;&lt;/div&gt;신규 강의 생성하기 C BL&lt;br&gt;강의 전체 조회하기 R BL&lt;br&gt;강의 부분 조회하기 R BL&lt;br&gt;기존 강의 수정하기 U BL&lt;br&gt;기존 강의 삭제하기 D BL&lt;br&gt;&lt;br&gt;&lt;div style=&quot;text-align: left;&quot;&gt;&lt;span style=&quot;background-color: initial;&quot;&gt;[USE]&lt;/span&gt;&lt;/div&gt;강의 수강 신청하기 C BL&lt;br&gt;신청 강의 조회하기 R BL&lt;br&gt;신청 강의 수정하기 U BL&lt;br&gt;신청 강의 삭제하기 D BL" style="rounded=0;whiteSpace=wrap;html=1;align=center;" vertex="1" parent="1">
          <mxGeometry x="-1630" y="160" width="230" height="300" as="geometry" />
        </mxCell>
        <mxCell id="GZiHN858R7NsV17_iSoU-6" value="&lt;div style=&quot;text-align: left;&quot;&gt;&lt;span style=&quot;background-color: initial;&quot;&gt;[관리 영역]&lt;/span&gt;&lt;/div&gt;&lt;div style=&quot;text-align: left;&quot;&gt;&lt;span style=&quot;background-color: initial;&quot;&gt;회원 생성하기 C BL&lt;/span&gt;&lt;/div&gt;&lt;div style=&quot;text-align: left;&quot;&gt;&lt;span style=&quot;background-color: initial;&quot;&gt;회원 전체 조회하기 R BL&lt;/span&gt;&lt;br&gt;&lt;/div&gt;&lt;div style=&quot;text-align: left;&quot;&gt;&lt;span style=&quot;background-color: initial;&quot;&gt;회원 부분 조회하기 R BL&lt;/span&gt;&lt;/div&gt;&lt;div style=&quot;text-align: left;&quot;&gt;&lt;span style=&quot;background-color: initial;&quot;&gt;회원 정보 수정하기 U BL&lt;/span&gt;&lt;/div&gt;&lt;div style=&quot;text-align: left;&quot;&gt;&lt;span style=&quot;background-color: initial;&quot;&gt;회원 삭제하기 D BL&lt;/span&gt;&lt;/div&gt;&lt;br&gt;&lt;br&gt;&lt;div style=&quot;text-align: left;&quot;&gt;&lt;span style=&quot;background-color: initial;&quot;&gt;[USE]&lt;/span&gt;&lt;/div&gt;&lt;div style=&quot;text-align: left;&quot;&gt;&lt;div style=&quot;border-color: var(--border-color);&quot;&gt;회원 가입하기 C BL&lt;/div&gt;&lt;/div&gt;&lt;div style=&quot;text-align: left;&quot;&gt;&lt;span style=&quot;background-color: initial;&quot;&gt;로그인하기 BL&lt;/span&gt;&lt;/div&gt;&lt;div style=&quot;text-align: left;&quot;&gt;&lt;span style=&quot;background-color: initial;&quot;&gt;로그아웃하기 BL&lt;/span&gt;&lt;/div&gt;&lt;div style=&quot;text-align: left;&quot;&gt;나의 정보 확인하기 BL&lt;/div&gt;&lt;div style=&quot;text-align: left;&quot;&gt;나의 정보 수정하기 BL&lt;/div&gt;&lt;div style=&quot;text-align: left;&quot;&gt;회원 탈퇴하기 BL&lt;/div&gt;&lt;div style=&quot;text-align: left;&quot;&gt;&lt;br&gt;&lt;/div&gt;" style="rounded=0;whiteSpace=wrap;html=1;align=center;" vertex="1" parent="1">
          <mxGeometry x="-1310" y="160" width="230" height="300" as="geometry" />
        </mxCell>
        <mxCell id="GZiHN858R7NsV17_iSoU-7" value="&amp;nbsp;영역별(Domain) Permission 정리" style="rounded=0;whiteSpace=wrap;html=1;align=left;" vertex="1" parent="1">
          <mxGeometry x="-1630" y="510" width="1970" height="30" as="geometry" />
        </mxCell>
        <mxCell id="GZiHN858R7NsV17_iSoU-8" value="도메인" style="rounded=0;whiteSpace=wrap;html=1;" vertex="1" parent="1">
          <mxGeometry x="-1630" y="570" width="270" height="60" as="geometry" />
        </mxCell>
        <mxCell id="GZiHN858R7NsV17_iSoU-9" value="강의 서비스" style="rounded=0;whiteSpace=wrap;html=1;" vertex="1" parent="1">
          <mxGeometry x="-1310" y="570" width="810" height="60" as="geometry" />
        </mxCell>
        <mxCell id="GZiHN858R7NsV17_iSoU-10" value="회원&lt;br&gt;(USER)" style="rounded=0;whiteSpace=wrap;html=1;" vertex="1" parent="1">
          <mxGeometry x="-1630" y="650" width="270" height="300" as="geometry" />
        </mxCell>
        <mxCell id="GZiHN858R7NsV17_iSoU-11" value="비회원&lt;br&gt;( ANONYMOUS)" style="rounded=0;whiteSpace=wrap;html=1;" vertex="1" parent="1">
          <mxGeometry x="-1630" y="970" width="270" height="300" as="geometry" />
        </mxCell>
        <mxCell id="GZiHN858R7NsV17_iSoU-12" value="직원&lt;br&gt;(MANAGER)" style="rounded=0;whiteSpace=wrap;html=1;" vertex="1" parent="1">
          <mxGeometry x="-1630" y="1290" width="270" height="300" as="geometry" />
        </mxCell>
        <mxCell id="GZiHN858R7NsV17_iSoU-13" value="관리자&lt;br&gt;(ADMIN)" style="rounded=0;whiteSpace=wrap;html=1;" vertex="1" parent="1">
          <mxGeometry x="-1630" y="1610" width="270" height="300" as="geometry" />
        </mxCell>
        <mxCell id="GZiHN858R7NsV17_iSoU-15" value="&lt;div style=&quot;text-align: left;&quot;&gt;&lt;span style=&quot;background-color: initial;&quot;&gt;[관리 영역]&lt;/span&gt;&lt;/div&gt;신규 강의 생성하기 C BL&amp;nbsp; 없다&lt;br&gt;강의 전체 조회하기 R BL 있다&lt;br&gt;강의 부분 조회하기 R BL 있다&lt;br&gt;기존 강의 수정하기 U BL 없다&lt;br&gt;기존 강의 삭제하기 D BL 없다&lt;br&gt;&lt;br&gt;&lt;div style=&quot;text-align: left;&quot;&gt;&lt;span style=&quot;background-color: initial;&quot;&gt;[USE]&lt;/span&gt;&lt;/div&gt;강의 수강 신청하기 C BL 있다&lt;br&gt;신청 강의 조회하기 R BL 있다&lt;br&gt;신청 강의 수정하기 U BL 있다&lt;br&gt;신청 강의 삭제하기 D BL 있다" style="rounded=0;whiteSpace=wrap;html=1;align=center;" vertex="1" parent="1">
          <mxGeometry x="-1310" y="650" width="810" height="300" as="geometry" />
        </mxCell>
        <mxCell id="GZiHN858R7NsV17_iSoU-16" value="&lt;div style=&quot;text-align: left;&quot;&gt;&lt;span style=&quot;background-color: initial;&quot;&gt;[관리 영역]&lt;/span&gt;&lt;/div&gt;신규 강의 생성하기 C BL 없다&lt;br&gt;강의 전체 조회하기 R BL 있다&lt;br&gt;강의 부분 조회하기 R BL 있다&lt;br&gt;기존 강의 수정하기 U BL 없다&lt;br&gt;기존 강의 삭제하기 D BL 없다&lt;br&gt;&lt;br&gt;&lt;div style=&quot;text-align: left;&quot;&gt;&lt;span style=&quot;background-color: initial;&quot;&gt;[USE]&lt;/span&gt;&lt;/div&gt;강의 수강 신청하기 C BL 없다&lt;br&gt;신청 강의 조회하기 R BL 없다&lt;br&gt;신청 강의 수정하기 U BL 없다&lt;br&gt;신청 강의 삭제하기 D BL 없다" style="rounded=0;whiteSpace=wrap;html=1;align=center;" vertex="1" parent="1">
          <mxGeometry x="-1310" y="970" width="810" height="300" as="geometry" />
        </mxCell>
        <mxCell id="GZiHN858R7NsV17_iSoU-17" value="&lt;div style=&quot;text-align: left;&quot;&gt;&lt;span style=&quot;background-color: initial;&quot;&gt;[관리 영역]&lt;/span&gt;&lt;/div&gt;신규 강의 생성하기 C BL 없다&lt;br&gt;강의 전체 조회하기 R BL 있다&lt;br&gt;강의 부분 조회하기 R BL 있다&lt;br&gt;기존 강의 수정하기 U BL 없다&lt;br&gt;기존 강의 삭제하기 D BL 없다&lt;br&gt;&lt;br&gt;&lt;div style=&quot;text-align: left;&quot;&gt;&lt;span style=&quot;background-color: initial;&quot;&gt;[USE]&lt;/span&gt;&lt;/div&gt;강의 수강 신청하기 C BL 없다&lt;br&gt;신청 강의 조회하기 R BL 없다&lt;br&gt;신청 강의 수정하기 U BL 없다&lt;br&gt;신청 강의 삭제하기 D BL 없다" style="rounded=0;whiteSpace=wrap;html=1;align=center;" vertex="1" parent="1">
          <mxGeometry x="-1310" y="1290" width="810" height="300" as="geometry" />
        </mxCell>
        <mxCell id="GZiHN858R7NsV17_iSoU-18" value="&lt;div style=&quot;text-align: left;&quot;&gt;&lt;span style=&quot;background-color: initial;&quot;&gt;[관리 영역]&lt;/span&gt;&lt;/div&gt;신규 강의 생성하기 C BL 있다&lt;br&gt;강의 전체 조회하기 R BL 있다&lt;br&gt;강의 부분 조회하기 R BL 있다&lt;br&gt;기존 강의 수정하기 U BL 있다&lt;br&gt;기존 강의 삭제하기 D BL 있다&lt;br&gt;&lt;br&gt;&lt;div style=&quot;text-align: left;&quot;&gt;&lt;span style=&quot;background-color: initial;&quot;&gt;[USE]&lt;/span&gt;&lt;/div&gt;강의 수강 신청하기 C BL 없다&lt;br&gt;신청 강의 조회하기 R BL 없다&lt;br&gt;신청 강의 수정하기 U BL 없다&lt;br&gt;신청 강의 삭제하기 D BL 없다" style="rounded=0;whiteSpace=wrap;html=1;align=center;" vertex="1" parent="1">
          <mxGeometry x="-1310" y="1610" width="810" height="300" as="geometry" />
        </mxCell>
        <mxCell id="GZiHN858R7NsV17_iSoU-19" value="회원 서비스" style="rounded=0;whiteSpace=wrap;html=1;" vertex="1" parent="1">
          <mxGeometry x="-470" y="570" width="810" height="60" as="geometry" />
        </mxCell>
        <mxCell id="GZiHN858R7NsV17_iSoU-20" value="&lt;div style=&quot;border-color: var(--border-color); text-align: left;&quot;&gt;[관리 영역]&lt;/div&gt;&lt;div style=&quot;border-color: var(--border-color); text-align: left;&quot;&gt;회원 생성하기 C BL 없다&lt;/div&gt;&lt;div style=&quot;border-color: var(--border-color); text-align: left;&quot;&gt;&lt;span style=&quot;background-color: initial;&quot;&gt;회원 전체 조회하기 R BL 없다&lt;/span&gt;&lt;br&gt;&lt;/div&gt;&lt;div style=&quot;border-color: var(--border-color); text-align: left;&quot;&gt;&lt;span style=&quot;border-color: var(--border-color); background-color: initial;&quot;&gt;회원 부분 조회하기 R BL 없다&lt;/span&gt;&lt;/div&gt;&lt;div style=&quot;border-color: var(--border-color); text-align: left;&quot;&gt;&lt;span style=&quot;border-color: var(--border-color); background-color: initial;&quot;&gt;회원 정보 수정하기 U BL 없다&lt;/span&gt;&lt;/div&gt;&lt;div style=&quot;border-color: var(--border-color); text-align: left;&quot;&gt;&lt;span style=&quot;border-color: var(--border-color); background-color: initial;&quot;&gt;회원 삭제하기 D BL 없다&lt;/span&gt;&lt;/div&gt;&lt;br style=&quot;border-color: var(--border-color);&quot;&gt;&lt;br style=&quot;border-color: var(--border-color);&quot;&gt;&lt;div style=&quot;border-color: var(--border-color); text-align: left;&quot;&gt;&lt;span style=&quot;border-color: var(--border-color); background-color: initial;&quot;&gt;[USE]&lt;/span&gt;&lt;/div&gt;&lt;div style=&quot;border-color: var(--border-color); text-align: left;&quot;&gt;&lt;span style=&quot;border-color: var(--border-color); background-color: initial;&quot;&gt;회원 가입하기 C BL 없다&lt;/span&gt;&lt;/div&gt;&lt;div style=&quot;border-color: var(--border-color); text-align: left;&quot;&gt;&lt;span style=&quot;border-color: var(--border-color); background-color: initial;&quot;&gt;로그인하기 BL 있다&lt;/span&gt;&lt;/div&gt;&lt;div style=&quot;border-color: var(--border-color); text-align: left;&quot;&gt;&lt;span style=&quot;border-color: var(--border-color); background-color: initial;&quot;&gt;로그아웃하기 BL 있다&lt;/span&gt;&lt;/div&gt;&lt;div style=&quot;border-color: var(--border-color); text-align: left;&quot;&gt;나의 정보 확인하기 BL 있다&lt;/div&gt;&lt;div style=&quot;border-color: var(--border-color); text-align: left;&quot;&gt;나의 정보 수정하기 BL 있다&lt;/div&gt;&lt;div style=&quot;border-color: var(--border-color); text-align: left;&quot;&gt;회원 탈퇴하기 BL 있다&lt;/div&gt;&lt;div style=&quot;border-color: var(--border-color); text-align: left;&quot;&gt;&lt;br style=&quot;border-color: var(--border-color);&quot;&gt;&lt;/div&gt;&lt;div style=&quot;text-align: left;&quot;&gt;&lt;/div&gt;" style="rounded=0;whiteSpace=wrap;html=1;align=center;" vertex="1" parent="1">
          <mxGeometry x="-470" y="650" width="810" height="300" as="geometry" />
        </mxCell>
        <mxCell id="GZiHN858R7NsV17_iSoU-21" value="&lt;div style=&quot;border-color: var(--border-color); text-align: left;&quot;&gt;[관리 영역]&lt;/div&gt;&lt;div style=&quot;border-color: var(--border-color); text-align: left;&quot;&gt;&lt;span style=&quot;border-color: var(--border-color); background-color: initial;&quot;&gt;회원 생성하기 C BL 없다&lt;/span&gt;&lt;/div&gt;&lt;div style=&quot;border-color: var(--border-color); text-align: left;&quot;&gt;&lt;span style=&quot;border-color: var(--border-color); background-color: initial;&quot;&gt;회원 전체 조회하기 R BL 없다&lt;/span&gt;&lt;/div&gt;&lt;div style=&quot;border-color: var(--border-color); text-align: left;&quot;&gt;&lt;span style=&quot;border-color: var(--border-color); background-color: initial;&quot;&gt;회원 부분 조회하기 R BL 없다&lt;/span&gt;&lt;/div&gt;&lt;div style=&quot;border-color: var(--border-color); text-align: left;&quot;&gt;&lt;span style=&quot;border-color: var(--border-color); background-color: initial;&quot;&gt;회원 정보 수정하기 U BL 없다&lt;/span&gt;&lt;/div&gt;&lt;div style=&quot;border-color: var(--border-color); text-align: left;&quot;&gt;&lt;span style=&quot;border-color: var(--border-color); background-color: initial;&quot;&gt;회원 삭제하기 D BL 없다&lt;/span&gt;&lt;/div&gt;&lt;br style=&quot;border-color: var(--border-color);&quot;&gt;&lt;br style=&quot;border-color: var(--border-color);&quot;&gt;&lt;div style=&quot;border-color: var(--border-color); text-align: left;&quot;&gt;&lt;span style=&quot;border-color: var(--border-color); background-color: initial;&quot;&gt;[USE]&lt;/span&gt;&lt;/div&gt;&lt;div style=&quot;border-color: var(--border-color); text-align: left;&quot;&gt;&lt;span style=&quot;border-color: var(--border-color); background-color: initial;&quot;&gt;회원 가입하기 C BL 있다&lt;br&gt;&lt;/span&gt;&lt;/div&gt;&lt;div style=&quot;border-color: var(--border-color); text-align: left;&quot;&gt;&lt;span style=&quot;border-color: var(--border-color); background-color: initial;&quot;&gt;로그인하기 BL 없다&lt;/span&gt;&lt;/div&gt;&lt;div style=&quot;border-color: var(--border-color); text-align: left;&quot;&gt;&lt;span style=&quot;border-color: var(--border-color); background-color: initial;&quot;&gt;로그아웃하기 BL 없다&lt;/span&gt;&lt;/div&gt;&lt;div style=&quot;border-color: var(--border-color); text-align: left;&quot;&gt;나의 정보 확인하기 BL 없다&lt;/div&gt;&lt;div style=&quot;border-color: var(--border-color); text-align: left;&quot;&gt;나의 정보 수정하기 BL 없다&lt;/div&gt;&lt;div style=&quot;border-color: var(--border-color); text-align: left;&quot;&gt;회원 탈퇴하기 BL 없다&lt;/div&gt;&lt;div style=&quot;border-color: var(--border-color); text-align: left;&quot;&gt;&lt;br style=&quot;border-color: var(--border-color);&quot;&gt;&lt;/div&gt;&lt;div style=&quot;text-align: left;&quot;&gt;&lt;/div&gt;" style="rounded=0;whiteSpace=wrap;html=1;align=center;" vertex="1" parent="1">
          <mxGeometry x="-470" y="970" width="810" height="300" as="geometry" />
        </mxCell>
        <mxCell id="GZiHN858R7NsV17_iSoU-22" value="&lt;div style=&quot;border-color: var(--border-color); text-align: left;&quot;&gt;[관리 영역]&lt;/div&gt;&lt;div style=&quot;border-color: var(--border-color); text-align: left;&quot;&gt;&lt;span style=&quot;border-color: var(--border-color); background-color: initial;&quot;&gt;회원 전체 조회하기 R BL 있다&lt;/span&gt;&lt;/div&gt;&lt;div style=&quot;border-color: var(--border-color); text-align: left;&quot;&gt;&lt;span style=&quot;border-color: var(--border-color); background-color: initial;&quot;&gt;회원 부분 조회하기 R BL 있다&lt;/span&gt;&lt;/div&gt;&lt;div style=&quot;border-color: var(--border-color); text-align: left;&quot;&gt;&lt;span style=&quot;border-color: var(--border-color); background-color: initial;&quot;&gt;회원 정보 수정하기 U BL 있다&lt;/span&gt;&lt;/div&gt;&lt;div style=&quot;border-color: var(--border-color); text-align: left;&quot;&gt;&lt;span style=&quot;border-color: var(--border-color); background-color: initial;&quot;&gt;회원 삭제하기 D BL 있다&lt;/span&gt;&lt;/div&gt;&lt;br style=&quot;border-color: var(--border-color);&quot;&gt;&lt;br style=&quot;border-color: var(--border-color);&quot;&gt;&lt;div style=&quot;border-color: var(--border-color); text-align: left;&quot;&gt;&lt;span style=&quot;border-color: var(--border-color); background-color: initial;&quot;&gt;[USE]&lt;/span&gt;&lt;/div&gt;&lt;div style=&quot;border-color: var(--border-color); text-align: left;&quot;&gt;&lt;span style=&quot;border-color: var(--border-color); background-color: initial;&quot;&gt;회원 가입하기 C BL&lt;br&gt;&lt;/span&gt;&lt;/div&gt;&lt;div style=&quot;border-color: var(--border-color); text-align: left;&quot;&gt;&lt;span style=&quot;border-color: var(--border-color); background-color: initial;&quot;&gt;로그인하기 BL&lt;/span&gt;&lt;/div&gt;&lt;div style=&quot;border-color: var(--border-color); text-align: left;&quot;&gt;&lt;span style=&quot;border-color: var(--border-color); background-color: initial;&quot;&gt;로그아웃하기 BL&lt;/span&gt;&lt;/div&gt;&lt;div style=&quot;border-color: var(--border-color); text-align: left;&quot;&gt;나의 정보 확인하기 BL&lt;/div&gt;&lt;div style=&quot;border-color: var(--border-color); text-align: left;&quot;&gt;나의 정보 수정하기 BL&lt;/div&gt;&lt;div style=&quot;border-color: var(--border-color); text-align: left;&quot;&gt;회원 탈퇴하기 BL&lt;/div&gt;&lt;div style=&quot;border-color: var(--border-color); text-align: left;&quot;&gt;&lt;br style=&quot;border-color: var(--border-color);&quot;&gt;&lt;/div&gt;&lt;div style=&quot;text-align: left;&quot;&gt;&lt;/div&gt;" style="rounded=0;whiteSpace=wrap;html=1;align=center;" vertex="1" parent="1">
          <mxGeometry x="-470" y="1290" width="810" height="300" as="geometry" />
        </mxCell>
        <mxCell id="GZiHN858R7NsV17_iSoU-23" value="&lt;div style=&quot;border-color: var(--border-color); text-align: left;&quot;&gt;[관리 영역]&lt;/div&gt;&lt;div style=&quot;border-color: var(--border-color); text-align: left;&quot;&gt;&lt;span style=&quot;border-color: var(--border-color); background-color: initial;&quot;&gt;회원 전체 조회하기 R BL&lt;/span&gt;&lt;/div&gt;&lt;div style=&quot;border-color: var(--border-color); text-align: left;&quot;&gt;&lt;span style=&quot;border-color: var(--border-color); background-color: initial;&quot;&gt;회원 부분 조회하기 R BL&lt;/span&gt;&lt;/div&gt;&lt;div style=&quot;border-color: var(--border-color); text-align: left;&quot;&gt;&lt;span style=&quot;border-color: var(--border-color); background-color: initial;&quot;&gt;회원 정보 수정하기 U BL&lt;/span&gt;&lt;/div&gt;&lt;div style=&quot;border-color: var(--border-color); text-align: left;&quot;&gt;&lt;span style=&quot;border-color: var(--border-color); background-color: initial;&quot;&gt;회원 삭제하기 D BL&lt;/span&gt;&lt;/div&gt;&lt;br style=&quot;border-color: var(--border-color);&quot;&gt;&lt;br style=&quot;border-color: var(--border-color);&quot;&gt;&lt;div style=&quot;border-color: var(--border-color); text-align: left;&quot;&gt;&lt;span style=&quot;border-color: var(--border-color); background-color: initial;&quot;&gt;[USE]&lt;/span&gt;&lt;/div&gt;&lt;div style=&quot;border-color: var(--border-color); text-align: left;&quot;&gt;&lt;span style=&quot;border-color: var(--border-color); background-color: initial;&quot;&gt;회원 가입하기 C BL&lt;br&gt;&lt;/span&gt;&lt;/div&gt;&lt;div style=&quot;border-color: var(--border-color); text-align: left;&quot;&gt;&lt;span style=&quot;border-color: var(--border-color); background-color: initial;&quot;&gt;로그인하기 BL&lt;/span&gt;&lt;/div&gt;&lt;div style=&quot;border-color: var(--border-color); text-align: left;&quot;&gt;&lt;span style=&quot;border-color: var(--border-color); background-color: initial;&quot;&gt;로그아웃하기 BL&lt;/span&gt;&lt;/div&gt;&lt;div style=&quot;border-color: var(--border-color); text-align: left;&quot;&gt;나의 정보 확인하기 BL&lt;/div&gt;&lt;div style=&quot;border-color: var(--border-color); text-align: left;&quot;&gt;나의 정보 수정하기 BL&lt;/div&gt;&lt;div style=&quot;border-color: var(--border-color); text-align: left;&quot;&gt;회원 탈퇴하기 BL&lt;/div&gt;&lt;div style=&quot;border-color: var(--border-color); text-align: left;&quot;&gt;&lt;br style=&quot;border-color: var(--border-color);&quot;&gt;&lt;/div&gt;&lt;div style=&quot;text-align: left;&quot;&gt;&lt;/div&gt;" style="rounded=0;whiteSpace=wrap;html=1;align=center;" vertex="1" parent="1">
          <mxGeometry x="-470" y="1610" width="810" height="300" as="geometry" />
        </mxCell>
        <mxCell id="GZiHN858R7NsV17_iSoU-24" value="저장 단위별 정리(Entity) - Create에 필요한 속성들 정리" style="rounded=0;whiteSpace=wrap;html=1;align=left;" vertex="1" parent="1">
          <mxGeometry x="-1630" y="1950" width="1970" height="30" as="geometry" />
        </mxCell>
        <mxCell id="GZiHN858R7NsV17_iSoU-25" value="강의 서비스" style="rounded=0;whiteSpace=wrap;html=1;" vertex="1" parent="1">
          <mxGeometry x="-1630" y="2000" width="230" height="50" as="geometry" />
        </mxCell>
        <mxCell id="GZiHN858R7NsV17_iSoU-26" value="회원 서비스" style="rounded=0;whiteSpace=wrap;html=1;" vertex="1" parent="1">
          <mxGeometry x="-1630" y="2390" width="230" height="50" as="geometry" />
        </mxCell>
        <mxCell id="GZiHN858R7NsV17_iSoU-27" value="&lt;div style=&quot;text-align: left;&quot;&gt;&lt;span style=&quot;background-color: initial;&quot;&gt;[관리 영역]&lt;/span&gt;&lt;/div&gt;신규 강의 생성하기 &lt;font color=&quot;#ff3333&quot;&gt;C&lt;/font&gt; BL&lt;br&gt;강의 전체 조회하기 R BL&lt;br&gt;강의 부분 조회하기 R BL&lt;br&gt;기존 강의 수정하기 U BL&lt;br&gt;기존 강의 삭제하기 D BL&lt;br&gt;&lt;br&gt;&lt;div style=&quot;text-align: left;&quot;&gt;&lt;span style=&quot;background-color: initial;&quot;&gt;[USE]&lt;/span&gt;&lt;/div&gt;강의 수강 신청하기 C BL&lt;br&gt;신청 강의 조회하기 R BL&lt;br&gt;신청 강의 수정하기 U BL&lt;br&gt;신청 강의 삭제하기 D BL" style="rounded=0;whiteSpace=wrap;html=1;align=center;" vertex="1" parent="1">
          <mxGeometry x="-1630" y="2070" width="230" height="300" as="geometry" />
        </mxCell>
        <mxCell id="GZiHN858R7NsV17_iSoU-28" value="&lt;div style=&quot;text-align: left;&quot;&gt;&lt;span style=&quot;background-color: initial;&quot;&gt;[관리 영역]&lt;/span&gt;&lt;/div&gt;&lt;div style=&quot;text-align: left;&quot;&gt;&lt;span style=&quot;background-color: initial;&quot;&gt;회원 생성하기 C BL&lt;/span&gt;&lt;/div&gt;&lt;div style=&quot;text-align: left;&quot;&gt;&lt;span style=&quot;background-color: initial;&quot;&gt;회원 전체 조회하기 R BL&lt;/span&gt;&lt;br&gt;&lt;/div&gt;&lt;div style=&quot;text-align: left;&quot;&gt;&lt;span style=&quot;background-color: initial;&quot;&gt;회원 부분 조회하기 R BL&lt;/span&gt;&lt;/div&gt;&lt;div style=&quot;text-align: left;&quot;&gt;&lt;span style=&quot;background-color: initial;&quot;&gt;회원 정보 수정하기 U BL&lt;/span&gt;&lt;/div&gt;&lt;div style=&quot;text-align: left;&quot;&gt;&lt;span style=&quot;background-color: initial;&quot;&gt;회원 삭제하기 D BL&lt;/span&gt;&lt;/div&gt;&lt;br&gt;&lt;br&gt;&lt;div style=&quot;text-align: left;&quot;&gt;&lt;span style=&quot;background-color: initial;&quot;&gt;[USE]&lt;/span&gt;&lt;/div&gt;&lt;div style=&quot;text-align: left;&quot;&gt;&lt;div style=&quot;border-color: var(--border-color);&quot;&gt;회원 가입하기 C BL&lt;/div&gt;&lt;/div&gt;&lt;div style=&quot;text-align: left;&quot;&gt;&lt;span style=&quot;background-color: initial;&quot;&gt;로그인하기 BL&lt;/span&gt;&lt;/div&gt;&lt;div style=&quot;text-align: left;&quot;&gt;&lt;span style=&quot;background-color: initial;&quot;&gt;로그아웃하기 BL&lt;/span&gt;&lt;/div&gt;&lt;div style=&quot;text-align: left;&quot;&gt;나의 정보 확인하기 BL&lt;/div&gt;&lt;div style=&quot;text-align: left;&quot;&gt;나의 정보 수정하기 BL&lt;/div&gt;&lt;div style=&quot;text-align: left;&quot;&gt;회원 탈퇴하기 BL&lt;/div&gt;&lt;div style=&quot;text-align: left;&quot;&gt;&lt;br&gt;&lt;/div&gt;" style="rounded=0;whiteSpace=wrap;html=1;align=center;" vertex="1" parent="1">
          <mxGeometry x="-1630" y="2460" width="230" height="300" as="geometry" />
        </mxCell>
        <mxCell id="GZiHN858R7NsV17_iSoU-29" value="강의 ENTITY" style="rounded=0;whiteSpace=wrap;html=1;" vertex="1" parent="1">
          <mxGeometry x="-1355" y="2000" width="230" height="50" as="geometry" />
        </mxCell>
        <mxCell id="GZiHN858R7NsV17_iSoU-30" value="[Attribute]&lt;br&gt;&lt;div style=&quot;text-align: left;&quot;&gt;&lt;span style=&quot;background-color: initial;&quot;&gt;강의 구별 ID(PK)&lt;/span&gt;&lt;/div&gt;강의명&lt;br&gt;강사명&lt;br&gt;강의장명&lt;br&gt;강의시간&lt;br&gt;상세정보" style="rounded=0;whiteSpace=wrap;html=1;" vertex="1" parent="1">
          <mxGeometry x="-1355" y="2070" width="230" height="120" as="geometry" />
        </mxCell>
        <mxCell id="GZiHN858R7NsV17_iSoU-31" value="" style="endArrow=classic;html=1;rounded=0;entryX=0;entryY=0.5;entryDx=0;entryDy=0;" edge="1" parent="1" target="GZiHN858R7NsV17_iSoU-30">
          <mxGeometry width="50" height="50" relative="1" as="geometry">
            <mxPoint x="-1440" y="2155" as="sourcePoint" />
            <mxPoint x="-1390" y="2105" as="targetPoint" />
          </mxGeometry>
        </mxCell>
        <mxCell id="GZiHN858R7NsV17_iSoU-32" value="강의 Table" style="shape=table;startSize=30;container=1;collapsible=1;childLayout=tableLayout;fixedRows=1;rowLines=0;fontStyle=1;align=center;resizeLast=1;html=1;" vertex="1" parent="1">
          <mxGeometry x="-1100" y="2000" width="180" height="210" as="geometry" />
        </mxCell>
        <mxCell id="GZiHN858R7NsV17_iSoU-33" value="" style="shape=tableRow;horizontal=0;startSize=0;swimlaneHead=0;swimlaneBody=0;fillColor=none;collapsible=0;dropTarget=0;points=[[0,0.5],[1,0.5]];portConstraint=eastwest;top=0;left=0;right=0;bottom=1;" vertex="1" parent="GZiHN858R7NsV17_iSoU-32">
          <mxGeometry y="30" width="180" height="30" as="geometry" />
        </mxCell>
        <mxCell id="GZiHN858R7NsV17_iSoU-34" value="PK" style="shape=partialRectangle;connectable=0;fillColor=none;top=0;left=0;bottom=0;right=0;fontStyle=1;overflow=hidden;whiteSpace=wrap;html=1;" vertex="1" parent="GZiHN858R7NsV17_iSoU-33">
          <mxGeometry width="30" height="30" as="geometry">
            <mxRectangle width="30" height="30" as="alternateBounds" />
          </mxGeometry>
        </mxCell>
        <mxCell id="GZiHN858R7NsV17_iSoU-35" value="강의구별번호" style="shape=partialRectangle;connectable=0;fillColor=none;top=0;left=0;bottom=0;right=0;align=left;spacingLeft=6;fontStyle=5;overflow=hidden;whiteSpace=wrap;html=1;" vertex="1" parent="GZiHN858R7NsV17_iSoU-33">
          <mxGeometry x="30" width="150" height="30" as="geometry">
            <mxRectangle width="150" height="30" as="alternateBounds" />
          </mxGeometry>
        </mxCell>
        <mxCell id="GZiHN858R7NsV17_iSoU-36" value="" style="shape=tableRow;horizontal=0;startSize=0;swimlaneHead=0;swimlaneBody=0;fillColor=none;collapsible=0;dropTarget=0;points=[[0,0.5],[1,0.5]];portConstraint=eastwest;top=0;left=0;right=0;bottom=0;" vertex="1" parent="GZiHN858R7NsV17_iSoU-32">
          <mxGeometry y="60" width="180" height="30" as="geometry" />
        </mxCell>
        <mxCell id="GZiHN858R7NsV17_iSoU-37" value="" style="shape=partialRectangle;connectable=0;fillColor=none;top=0;left=0;bottom=0;right=0;editable=1;overflow=hidden;whiteSpace=wrap;html=1;" vertex="1" parent="GZiHN858R7NsV17_iSoU-36">
          <mxGeometry width="30" height="30" as="geometry">
            <mxRectangle width="30" height="30" as="alternateBounds" />
          </mxGeometry>
        </mxCell>
        <mxCell id="GZiHN858R7NsV17_iSoU-38" value="강의명" style="shape=partialRectangle;connectable=0;fillColor=none;top=0;left=0;bottom=0;right=0;align=left;spacingLeft=6;overflow=hidden;whiteSpace=wrap;html=1;" vertex="1" parent="GZiHN858R7NsV17_iSoU-36">
          <mxGeometry x="30" width="150" height="30" as="geometry">
            <mxRectangle width="150" height="30" as="alternateBounds" />
          </mxGeometry>
        </mxCell>
        <mxCell id="GZiHN858R7NsV17_iSoU-39" value="" style="shape=tableRow;horizontal=0;startSize=0;swimlaneHead=0;swimlaneBody=0;fillColor=none;collapsible=0;dropTarget=0;points=[[0,0.5],[1,0.5]];portConstraint=eastwest;top=0;left=0;right=0;bottom=0;" vertex="1" parent="GZiHN858R7NsV17_iSoU-32">
          <mxGeometry y="90" width="180" height="30" as="geometry" />
        </mxCell>
        <mxCell id="GZiHN858R7NsV17_iSoU-40" value="" style="shape=partialRectangle;connectable=0;fillColor=none;top=0;left=0;bottom=0;right=0;editable=1;overflow=hidden;whiteSpace=wrap;html=1;" vertex="1" parent="GZiHN858R7NsV17_iSoU-39">
          <mxGeometry width="30" height="30" as="geometry">
            <mxRectangle width="30" height="30" as="alternateBounds" />
          </mxGeometry>
        </mxCell>
        <mxCell id="GZiHN858R7NsV17_iSoU-41" value="강사명" style="shape=partialRectangle;connectable=0;fillColor=none;top=0;left=0;bottom=0;right=0;align=left;spacingLeft=6;overflow=hidden;whiteSpace=wrap;html=1;" vertex="1" parent="GZiHN858R7NsV17_iSoU-39">
          <mxGeometry x="30" width="150" height="30" as="geometry">
            <mxRectangle width="150" height="30" as="alternateBounds" />
          </mxGeometry>
        </mxCell>
        <mxCell id="GZiHN858R7NsV17_iSoU-42" value="" style="shape=tableRow;horizontal=0;startSize=0;swimlaneHead=0;swimlaneBody=0;fillColor=none;collapsible=0;dropTarget=0;points=[[0,0.5],[1,0.5]];portConstraint=eastwest;top=0;left=0;right=0;bottom=0;" vertex="1" parent="GZiHN858R7NsV17_iSoU-32">
          <mxGeometry y="120" width="180" height="30" as="geometry" />
        </mxCell>
        <mxCell id="GZiHN858R7NsV17_iSoU-43" value="" style="shape=partialRectangle;connectable=0;fillColor=none;top=0;left=0;bottom=0;right=0;editable=1;overflow=hidden;whiteSpace=wrap;html=1;" vertex="1" parent="GZiHN858R7NsV17_iSoU-42">
          <mxGeometry width="30" height="30" as="geometry">
            <mxRectangle width="30" height="30" as="alternateBounds" />
          </mxGeometry>
        </mxCell>
        <mxCell id="GZiHN858R7NsV17_iSoU-44" value="강의장명" style="shape=partialRectangle;connectable=0;fillColor=none;top=0;left=0;bottom=0;right=0;align=left;spacingLeft=6;overflow=hidden;whiteSpace=wrap;html=1;" vertex="1" parent="GZiHN858R7NsV17_iSoU-42">
          <mxGeometry x="30" width="150" height="30" as="geometry">
            <mxRectangle width="150" height="30" as="alternateBounds" />
          </mxGeometry>
        </mxCell>
        <mxCell id="GZiHN858R7NsV17_iSoU-45" value="" style="shape=tableRow;horizontal=0;startSize=0;swimlaneHead=0;swimlaneBody=0;fillColor=none;collapsible=0;dropTarget=0;points=[[0,0.5],[1,0.5]];portConstraint=eastwest;top=0;left=0;right=0;bottom=0;" vertex="1" parent="GZiHN858R7NsV17_iSoU-32">
          <mxGeometry y="150" width="180" height="30" as="geometry" />
        </mxCell>
        <mxCell id="GZiHN858R7NsV17_iSoU-46" value="" style="shape=partialRectangle;connectable=0;fillColor=none;top=0;left=0;bottom=0;right=0;editable=1;overflow=hidden;whiteSpace=wrap;html=1;" vertex="1" parent="GZiHN858R7NsV17_iSoU-45">
          <mxGeometry width="30" height="30" as="geometry">
            <mxRectangle width="30" height="30" as="alternateBounds" />
          </mxGeometry>
        </mxCell>
        <mxCell id="GZiHN858R7NsV17_iSoU-47" value="강의시간" style="shape=partialRectangle;connectable=0;fillColor=none;top=0;left=0;bottom=0;right=0;align=left;spacingLeft=6;overflow=hidden;whiteSpace=wrap;html=1;" vertex="1" parent="GZiHN858R7NsV17_iSoU-45">
          <mxGeometry x="30" width="150" height="30" as="geometry">
            <mxRectangle width="150" height="30" as="alternateBounds" />
          </mxGeometry>
        </mxCell>
        <mxCell id="GZiHN858R7NsV17_iSoU-48" value="" style="shape=tableRow;horizontal=0;startSize=0;swimlaneHead=0;swimlaneBody=0;fillColor=none;collapsible=0;dropTarget=0;points=[[0,0.5],[1,0.5]];portConstraint=eastwest;top=0;left=0;right=0;bottom=0;" vertex="1" parent="GZiHN858R7NsV17_iSoU-32">
          <mxGeometry y="180" width="180" height="30" as="geometry" />
        </mxCell>
        <mxCell id="GZiHN858R7NsV17_iSoU-49" value="" style="shape=partialRectangle;connectable=0;fillColor=none;top=0;left=0;bottom=0;right=0;editable=1;overflow=hidden;whiteSpace=wrap;html=1;" vertex="1" parent="GZiHN858R7NsV17_iSoU-48">
          <mxGeometry width="30" height="30" as="geometry">
            <mxRectangle width="30" height="30" as="alternateBounds" />
          </mxGeometry>
        </mxCell>
        <mxCell id="GZiHN858R7NsV17_iSoU-50" value="상세정보" style="shape=partialRectangle;connectable=0;fillColor=none;top=0;left=0;bottom=0;right=0;align=left;spacingLeft=6;overflow=hidden;whiteSpace=wrap;html=1;" vertex="1" parent="GZiHN858R7NsV17_iSoU-48">
          <mxGeometry x="30" width="150" height="30" as="geometry">
            <mxRectangle width="150" height="30" as="alternateBounds" />
          </mxGeometry>
        </mxCell>
        <mxCell id="GZiHN858R7NsV17_iSoU-51" value="회원 ENTITY" style="rounded=0;whiteSpace=wrap;html=1;" vertex="1" parent="1">
          <mxGeometry x="-1355" y="2390" width="230" height="50" as="geometry" />
        </mxCell>
        <mxCell id="GZiHN858R7NsV17_iSoU-52" value="[Attribute]&lt;br&gt;&lt;div style=&quot;text-align: left;&quot;&gt;&lt;span style=&quot;background-color: initial;&quot;&gt;회원 ID(PK)&lt;/span&gt;&lt;/div&gt;&lt;div style=&quot;text-align: left;&quot;&gt;&lt;span style=&quot;background-color: initial;&quot;&gt;회원 PW&lt;/span&gt;&lt;/div&gt;&lt;div style=&quot;text-align: left;&quot;&gt;&lt;span style=&quot;background-color: initial;&quot;&gt;회원 이름&lt;/span&gt;&lt;/div&gt;&lt;div style=&quot;text-align: left;&quot;&gt;&lt;span style=&quot;background-color: initial;&quot;&gt;회원 연락처&lt;/span&gt;&lt;/div&gt;&lt;div style=&quot;text-align: left;&quot;&gt;&lt;span style=&quot;background-color: initial;&quot;&gt;회원 주소&lt;/span&gt;&lt;/div&gt;&lt;div style=&quot;text-align: left;&quot;&gt;&lt;/div&gt;" style="rounded=0;whiteSpace=wrap;html=1;" vertex="1" parent="1">
          <mxGeometry x="-1355" y="2460" width="230" height="120" as="geometry" />
        </mxCell>
        <mxCell id="GZiHN858R7NsV17_iSoU-53" value="회원 Table" style="shape=table;startSize=30;container=1;collapsible=1;childLayout=tableLayout;fixedRows=1;rowLines=0;fontStyle=1;align=center;resizeLast=1;html=1;" vertex="1" parent="1">
          <mxGeometry x="-1100" y="2400" width="180" height="180" as="geometry" />
        </mxCell>
        <mxCell id="GZiHN858R7NsV17_iSoU-54" value="" style="shape=tableRow;horizontal=0;startSize=0;swimlaneHead=0;swimlaneBody=0;fillColor=none;collapsible=0;dropTarget=0;points=[[0,0.5],[1,0.5]];portConstraint=eastwest;top=0;left=0;right=0;bottom=1;" vertex="1" parent="GZiHN858R7NsV17_iSoU-53">
          <mxGeometry y="30" width="180" height="30" as="geometry" />
        </mxCell>
        <mxCell id="GZiHN858R7NsV17_iSoU-55" value="PK" style="shape=partialRectangle;connectable=0;fillColor=none;top=0;left=0;bottom=0;right=0;fontStyle=1;overflow=hidden;whiteSpace=wrap;html=1;" vertex="1" parent="GZiHN858R7NsV17_iSoU-54">
          <mxGeometry width="30" height="30" as="geometry">
            <mxRectangle width="30" height="30" as="alternateBounds" />
          </mxGeometry>
        </mxCell>
        <mxCell id="GZiHN858R7NsV17_iSoU-56" value="회원ID" style="shape=partialRectangle;connectable=0;fillColor=none;top=0;left=0;bottom=0;right=0;align=left;spacingLeft=6;fontStyle=5;overflow=hidden;whiteSpace=wrap;html=1;" vertex="1" parent="GZiHN858R7NsV17_iSoU-54">
          <mxGeometry x="30" width="150" height="30" as="geometry">
            <mxRectangle width="150" height="30" as="alternateBounds" />
          </mxGeometry>
        </mxCell>
        <mxCell id="GZiHN858R7NsV17_iSoU-57" value="" style="shape=tableRow;horizontal=0;startSize=0;swimlaneHead=0;swimlaneBody=0;fillColor=none;collapsible=0;dropTarget=0;points=[[0,0.5],[1,0.5]];portConstraint=eastwest;top=0;left=0;right=0;bottom=0;" vertex="1" parent="GZiHN858R7NsV17_iSoU-53">
          <mxGeometry y="60" width="180" height="30" as="geometry" />
        </mxCell>
        <mxCell id="GZiHN858R7NsV17_iSoU-58" value="" style="shape=partialRectangle;connectable=0;fillColor=none;top=0;left=0;bottom=0;right=0;editable=1;overflow=hidden;whiteSpace=wrap;html=1;" vertex="1" parent="GZiHN858R7NsV17_iSoU-57">
          <mxGeometry width="30" height="30" as="geometry">
            <mxRectangle width="30" height="30" as="alternateBounds" />
          </mxGeometry>
        </mxCell>
        <mxCell id="GZiHN858R7NsV17_iSoU-59" value="회원 PW" style="shape=partialRectangle;connectable=0;fillColor=none;top=0;left=0;bottom=0;right=0;align=left;spacingLeft=6;overflow=hidden;whiteSpace=wrap;html=1;" vertex="1" parent="GZiHN858R7NsV17_iSoU-57">
          <mxGeometry x="30" width="150" height="30" as="geometry">
            <mxRectangle width="150" height="30" as="alternateBounds" />
          </mxGeometry>
        </mxCell>
        <mxCell id="GZiHN858R7NsV17_iSoU-60" value="" style="shape=tableRow;horizontal=0;startSize=0;swimlaneHead=0;swimlaneBody=0;fillColor=none;collapsible=0;dropTarget=0;points=[[0,0.5],[1,0.5]];portConstraint=eastwest;top=0;left=0;right=0;bottom=0;" vertex="1" parent="GZiHN858R7NsV17_iSoU-53">
          <mxGeometry y="90" width="180" height="30" as="geometry" />
        </mxCell>
        <mxCell id="GZiHN858R7NsV17_iSoU-61" value="" style="shape=partialRectangle;connectable=0;fillColor=none;top=0;left=0;bottom=0;right=0;editable=1;overflow=hidden;whiteSpace=wrap;html=1;" vertex="1" parent="GZiHN858R7NsV17_iSoU-60">
          <mxGeometry width="30" height="30" as="geometry">
            <mxRectangle width="30" height="30" as="alternateBounds" />
          </mxGeometry>
        </mxCell>
        <mxCell id="GZiHN858R7NsV17_iSoU-62" value="회원 이름" style="shape=partialRectangle;connectable=0;fillColor=none;top=0;left=0;bottom=0;right=0;align=left;spacingLeft=6;overflow=hidden;whiteSpace=wrap;html=1;" vertex="1" parent="GZiHN858R7NsV17_iSoU-60">
          <mxGeometry x="30" width="150" height="30" as="geometry">
            <mxRectangle width="150" height="30" as="alternateBounds" />
          </mxGeometry>
        </mxCell>
        <mxCell id="GZiHN858R7NsV17_iSoU-63" value="" style="shape=tableRow;horizontal=0;startSize=0;swimlaneHead=0;swimlaneBody=0;fillColor=none;collapsible=0;dropTarget=0;points=[[0,0.5],[1,0.5]];portConstraint=eastwest;top=0;left=0;right=0;bottom=0;" vertex="1" parent="GZiHN858R7NsV17_iSoU-53">
          <mxGeometry y="120" width="180" height="30" as="geometry" />
        </mxCell>
        <mxCell id="GZiHN858R7NsV17_iSoU-64" value="" style="shape=partialRectangle;connectable=0;fillColor=none;top=0;left=0;bottom=0;right=0;editable=1;overflow=hidden;whiteSpace=wrap;html=1;" vertex="1" parent="GZiHN858R7NsV17_iSoU-63">
          <mxGeometry width="30" height="30" as="geometry">
            <mxRectangle width="30" height="30" as="alternateBounds" />
          </mxGeometry>
        </mxCell>
        <mxCell id="GZiHN858R7NsV17_iSoU-65" value="회원 연락처" style="shape=partialRectangle;connectable=0;fillColor=none;top=0;left=0;bottom=0;right=0;align=left;spacingLeft=6;overflow=hidden;whiteSpace=wrap;html=1;" vertex="1" parent="GZiHN858R7NsV17_iSoU-63">
          <mxGeometry x="30" width="150" height="30" as="geometry">
            <mxRectangle width="150" height="30" as="alternateBounds" />
          </mxGeometry>
        </mxCell>
        <mxCell id="GZiHN858R7NsV17_iSoU-66" value="" style="shape=tableRow;horizontal=0;startSize=0;swimlaneHead=0;swimlaneBody=0;fillColor=none;collapsible=0;dropTarget=0;points=[[0,0.5],[1,0.5]];portConstraint=eastwest;top=0;left=0;right=0;bottom=0;" vertex="1" parent="GZiHN858R7NsV17_iSoU-53">
          <mxGeometry y="150" width="180" height="30" as="geometry" />
        </mxCell>
        <mxCell id="GZiHN858R7NsV17_iSoU-67" value="" style="shape=partialRectangle;connectable=0;fillColor=none;top=0;left=0;bottom=0;right=0;editable=1;overflow=hidden;whiteSpace=wrap;html=1;" vertex="1" parent="GZiHN858R7NsV17_iSoU-66">
          <mxGeometry width="30" height="30" as="geometry">
            <mxRectangle width="30" height="30" as="alternateBounds" />
          </mxGeometry>
        </mxCell>
        <mxCell id="GZiHN858R7NsV17_iSoU-68" value="회원 주소" style="shape=partialRectangle;connectable=0;fillColor=none;top=0;left=0;bottom=0;right=0;align=left;spacingLeft=6;overflow=hidden;whiteSpace=wrap;html=1;" vertex="1" parent="GZiHN858R7NsV17_iSoU-66">
          <mxGeometry x="30" width="150" height="30" as="geometry">
            <mxRectangle width="150" height="30" as="alternateBounds" />
          </mxGeometry>
        </mxCell>
      </root>
    </mxGraphModel>
  </diagram>
  <diagram id="lH5QhX46r4D7uowya96O" name="ERD 추가">
    <mxGraphModel dx="1434" dy="780" grid="1" gridSize="10" guides="1" tooltips="1" connect="1" arrows="1" fold="1" page="1" pageScale="1" pageWidth="827" pageHeight="1169" math="0" shadow="0">
      <root>
        <mxCell id="0" />
        <mxCell id="1" parent="0" />
        <mxCell id="4ADDRqXZQ-zMWjjHX7WN-1" value="과일" style="rounded=0;whiteSpace=wrap;html=1;" vertex="1" parent="1">
          <mxGeometry x="130" y="110" width="120" height="60" as="geometry" />
        </mxCell>
        <mxCell id="4ADDRqXZQ-zMWjjHX7WN-2" value="가전" style="rounded=0;whiteSpace=wrap;html=1;" vertex="1" parent="1">
          <mxGeometry x="430" y="110" width="120" height="60" as="geometry" />
        </mxCell>
        <mxCell id="4ADDRqXZQ-zMWjjHX7WN-3" value="자동차" style="rounded=0;whiteSpace=wrap;html=1;" vertex="1" parent="1">
          <mxGeometry x="130" y="180" width="120" height="60" as="geometry" />
        </mxCell>
        <mxCell id="4ADDRqXZQ-zMWjjHX7WN-4" value="가구" style="rounded=0;whiteSpace=wrap;html=1;" vertex="1" parent="1">
          <mxGeometry x="430" y="180" width="120" height="60" as="geometry" />
        </mxCell>
        <mxCell id="4ADDRqXZQ-zMWjjHX7WN-5" value="관계 X" style="text;html=1;strokeColor=none;fillColor=none;align=center;verticalAlign=middle;whiteSpace=wrap;rounded=0;" vertex="1" parent="1">
          <mxGeometry x="310" y="125" width="60" height="30" as="geometry" />
        </mxCell>
        <mxCell id="4ADDRqXZQ-zMWjjHX7WN-6" value="관계 O" style="text;html=1;strokeColor=none;fillColor=none;align=center;verticalAlign=middle;whiteSpace=wrap;rounded=0;" vertex="1" parent="1">
          <mxGeometry x="310" y="190" width="60" height="30" as="geometry" />
        </mxCell>
        <mxCell id="4ADDRqXZQ-zMWjjHX7WN-17" value="" style="edgeStyle=orthogonalEdgeStyle;rounded=0;orthogonalLoop=1;jettySize=auto;html=1;endArrow=none;endFill=0;" edge="1" parent="1" source="4ADDRqXZQ-zMWjjHX7WN-7" target="4ADDRqXZQ-zMWjjHX7WN-12">
          <mxGeometry relative="1" as="geometry" />
        </mxCell>
        <mxCell id="4ADDRqXZQ-zMWjjHX7WN-7" value="강의" style="rounded=0;whiteSpace=wrap;html=1;" vertex="1" parent="1">
          <mxGeometry x="130" y="1400" width="120" height="60" as="geometry" />
        </mxCell>
        <mxCell id="4ADDRqXZQ-zMWjjHX7WN-8" value="학생" style="rounded=0;whiteSpace=wrap;html=1;" vertex="1" parent="1">
          <mxGeometry x="770" y="1400" width="120" height="60" as="geometry" />
        </mxCell>
        <mxCell id="4ADDRqXZQ-zMWjjHX7WN-19" value="" style="edgeStyle=orthogonalEdgeStyle;rounded=0;orthogonalLoop=1;jettySize=auto;html=1;endArrow=none;endFill=0;" edge="1" parent="1" source="4ADDRqXZQ-zMWjjHX7WN-9" target="4ADDRqXZQ-zMWjjHX7WN-13">
          <mxGeometry relative="1" as="geometry" />
        </mxCell>
        <mxCell id="4ADDRqXZQ-zMWjjHX7WN-9" value="직원" style="rounded=0;whiteSpace=wrap;html=1;" vertex="1" parent="1">
          <mxGeometry x="130" y="780" width="120" height="60" as="geometry" />
        </mxCell>
        <mxCell id="4ADDRqXZQ-zMWjjHX7WN-10" value="부서" style="rounded=0;whiteSpace=wrap;html=1;" vertex="1" parent="1">
          <mxGeometry x="430" y="780" width="120" height="60" as="geometry" />
        </mxCell>
        <mxCell id="4ADDRqXZQ-zMWjjHX7WN-11" value="테이블간 관계가 1:1" style="text;html=1;strokeColor=none;fillColor=none;align=center;verticalAlign=middle;whiteSpace=wrap;rounded=0;" vertex="1" parent="1">
          <mxGeometry x="125" y="280" width="160" height="30" as="geometry" />
        </mxCell>
        <mxCell id="4ADDRqXZQ-zMWjjHX7WN-18" value="" style="edgeStyle=orthogonalEdgeStyle;rounded=0;orthogonalLoop=1;jettySize=auto;html=1;endArrow=none;endFill=0;" edge="1" parent="1" source="4ADDRqXZQ-zMWjjHX7WN-12" target="4ADDRqXZQ-zMWjjHX7WN-8">
          <mxGeometry relative="1" as="geometry" />
        </mxCell>
        <mxCell id="4ADDRqXZQ-zMWjjHX7WN-12" value="수강신청" style="rhombus;whiteSpace=wrap;html=1;" vertex="1" parent="1">
          <mxGeometry x="470" y="1400" width="60" height="60" as="geometry" />
        </mxCell>
        <mxCell id="4ADDRqXZQ-zMWjjHX7WN-20" value="" style="edgeStyle=orthogonalEdgeStyle;rounded=0;orthogonalLoop=1;jettySize=auto;html=1;endArrow=none;endFill=0;" edge="1" parent="1" source="4ADDRqXZQ-zMWjjHX7WN-13" target="4ADDRqXZQ-zMWjjHX7WN-10">
          <mxGeometry relative="1" as="geometry" />
        </mxCell>
        <mxCell id="4ADDRqXZQ-zMWjjHX7WN-13" value="소속" style="rhombus;whiteSpace=wrap;html=1;" vertex="1" parent="1">
          <mxGeometry x="310" y="780" width="60" height="60" as="geometry" />
        </mxCell>
        <mxCell id="4ADDRqXZQ-zMWjjHX7WN-23" value="1" style="text;html=1;strokeColor=none;fillColor=none;align=center;verticalAlign=middle;whiteSpace=wrap;rounded=0;" vertex="1" parent="1">
          <mxGeometry x="250" y="1410" width="20" height="20" as="geometry" />
        </mxCell>
        <mxCell id="4ADDRqXZQ-zMWjjHX7WN-24" value="N" style="text;html=1;strokeColor=none;fillColor=none;align=center;verticalAlign=middle;whiteSpace=wrap;rounded=0;" vertex="1" parent="1">
          <mxGeometry x="450" y="1410" width="20" height="20" as="geometry" />
        </mxCell>
        <mxCell id="4ADDRqXZQ-zMWjjHX7WN-25" value="M" style="text;html=1;strokeColor=none;fillColor=none;align=center;verticalAlign=middle;whiteSpace=wrap;rounded=0;" vertex="1" parent="1">
          <mxGeometry x="530" y="1410" width="20" height="20" as="geometry" />
        </mxCell>
        <mxCell id="4ADDRqXZQ-zMWjjHX7WN-26" value="1" style="text;html=1;strokeColor=none;fillColor=none;align=center;verticalAlign=middle;whiteSpace=wrap;rounded=0;" vertex="1" parent="1">
          <mxGeometry x="770" y="1410" width="20" height="20" as="geometry" />
        </mxCell>
        <mxCell id="4ADDRqXZQ-zMWjjHX7WN-27" value="1" style="text;html=1;strokeColor=none;fillColor=none;align=center;verticalAlign=middle;whiteSpace=wrap;rounded=0;" vertex="1" parent="1">
          <mxGeometry x="250" y="790" width="20" height="20" as="geometry" />
        </mxCell>
        <mxCell id="4ADDRqXZQ-zMWjjHX7WN-28" value="1" style="text;html=1;strokeColor=none;fillColor=none;align=center;verticalAlign=middle;whiteSpace=wrap;rounded=0;" vertex="1" parent="1">
          <mxGeometry x="290" y="790" width="20" height="20" as="geometry" />
        </mxCell>
        <mxCell id="4ADDRqXZQ-zMWjjHX7WN-29" value="1" style="text;html=1;strokeColor=none;fillColor=none;align=center;verticalAlign=middle;whiteSpace=wrap;rounded=0;" vertex="1" parent="1">
          <mxGeometry x="410" y="790" width="20" height="20" as="geometry" />
        </mxCell>
        <mxCell id="4ADDRqXZQ-zMWjjHX7WN-30" value="N" style="text;html=1;strokeColor=none;fillColor=none;align=center;verticalAlign=middle;whiteSpace=wrap;rounded=0;" vertex="1" parent="1">
          <mxGeometry x="370" y="790" width="20" height="20" as="geometry" />
        </mxCell>
        <mxCell id="4ADDRqXZQ-zMWjjHX7WN-36" value="" style="edgeStyle=orthogonalEdgeStyle;rounded=0;orthogonalLoop=1;jettySize=auto;html=1;endArrow=none;endFill=0;" edge="1" parent="1" source="4ADDRqXZQ-zMWjjHX7WN-37" target="4ADDRqXZQ-zMWjjHX7WN-40">
          <mxGeometry relative="1" as="geometry" />
        </mxCell>
        <mxCell id="4ADDRqXZQ-zMWjjHX7WN-37" value="남자" style="rounded=0;whiteSpace=wrap;html=1;" vertex="1" parent="1">
          <mxGeometry x="130" y="330" width="120" height="60" as="geometry" />
        </mxCell>
        <mxCell id="4ADDRqXZQ-zMWjjHX7WN-38" value="여자" style="rounded=0;whiteSpace=wrap;html=1;" vertex="1" parent="1">
          <mxGeometry x="430" y="330" width="120" height="60" as="geometry" />
        </mxCell>
        <mxCell id="4ADDRqXZQ-zMWjjHX7WN-39" value="" style="edgeStyle=orthogonalEdgeStyle;rounded=0;orthogonalLoop=1;jettySize=auto;html=1;endArrow=none;endFill=0;" edge="1" parent="1" source="4ADDRqXZQ-zMWjjHX7WN-40" target="4ADDRqXZQ-zMWjjHX7WN-38">
          <mxGeometry relative="1" as="geometry" />
        </mxCell>
        <mxCell id="4ADDRqXZQ-zMWjjHX7WN-40" value="결혼" style="rhombus;whiteSpace=wrap;html=1;" vertex="1" parent="1">
          <mxGeometry x="310" y="330" width="60" height="60" as="geometry" />
        </mxCell>
        <mxCell id="4ADDRqXZQ-zMWjjHX7WN-41" value="1" style="text;html=1;strokeColor=none;fillColor=none;align=center;verticalAlign=middle;whiteSpace=wrap;rounded=0;" vertex="1" parent="1">
          <mxGeometry x="250" y="340" width="20" height="20" as="geometry" />
        </mxCell>
        <mxCell id="4ADDRqXZQ-zMWjjHX7WN-42" value="1" style="text;html=1;strokeColor=none;fillColor=none;align=center;verticalAlign=middle;whiteSpace=wrap;rounded=0;" vertex="1" parent="1">
          <mxGeometry x="290" y="340" width="20" height="20" as="geometry" />
        </mxCell>
        <mxCell id="4ADDRqXZQ-zMWjjHX7WN-43" value="1" style="text;html=1;strokeColor=none;fillColor=none;align=center;verticalAlign=middle;whiteSpace=wrap;rounded=0;" vertex="1" parent="1">
          <mxGeometry x="370" y="340" width="20" height="20" as="geometry" />
        </mxCell>
        <mxCell id="4ADDRqXZQ-zMWjjHX7WN-44" value="1" style="text;html=1;strokeColor=none;fillColor=none;align=center;verticalAlign=middle;whiteSpace=wrap;rounded=0;" vertex="1" parent="1">
          <mxGeometry x="410" y="340" width="20" height="20" as="geometry" />
        </mxCell>
        <mxCell id="4ADDRqXZQ-zMWjjHX7WN-88" value="" style="edgeStyle=orthogonalEdgeStyle;rounded=0;orthogonalLoop=1;jettySize=auto;html=1;endArrow=none;endFill=0;" edge="1" parent="1" source="4ADDRqXZQ-zMWjjHX7WN-89" target="4ADDRqXZQ-zMWjjHX7WN-92">
          <mxGeometry relative="1" as="geometry" />
        </mxCell>
        <mxCell id="4ADDRqXZQ-zMWjjHX7WN-89" value="아빠" style="rounded=0;whiteSpace=wrap;html=1;" vertex="1" parent="1">
          <mxGeometry x="130" y="480" width="120" height="60" as="geometry" />
        </mxCell>
        <mxCell id="4ADDRqXZQ-zMWjjHX7WN-90" value="엄마" style="rounded=0;whiteSpace=wrap;html=1;" vertex="1" parent="1">
          <mxGeometry x="430" y="480" width="120" height="60" as="geometry" />
        </mxCell>
        <mxCell id="4ADDRqXZQ-zMWjjHX7WN-91" value="" style="edgeStyle=orthogonalEdgeStyle;rounded=0;orthogonalLoop=1;jettySize=auto;html=1;endArrow=none;endFill=0;" edge="1" parent="1" source="4ADDRqXZQ-zMWjjHX7WN-92" target="4ADDRqXZQ-zMWjjHX7WN-90">
          <mxGeometry relative="1" as="geometry" />
        </mxCell>
        <mxCell id="4ADDRqXZQ-zMWjjHX7WN-92" value="부부" style="rhombus;whiteSpace=wrap;html=1;" vertex="1" parent="1">
          <mxGeometry x="310" y="480" width="60" height="60" as="geometry" />
        </mxCell>
        <mxCell id="4ADDRqXZQ-zMWjjHX7WN-93" value="1" style="text;html=1;strokeColor=none;fillColor=none;align=center;verticalAlign=middle;whiteSpace=wrap;rounded=0;" vertex="1" parent="1">
          <mxGeometry x="250" y="490" width="20" height="20" as="geometry" />
        </mxCell>
        <mxCell id="4ADDRqXZQ-zMWjjHX7WN-94" value="1" style="text;html=1;strokeColor=none;fillColor=none;align=center;verticalAlign=middle;whiteSpace=wrap;rounded=0;" vertex="1" parent="1">
          <mxGeometry x="290" y="490" width="20" height="20" as="geometry" />
        </mxCell>
        <mxCell id="4ADDRqXZQ-zMWjjHX7WN-95" value="1" style="text;html=1;strokeColor=none;fillColor=none;align=center;verticalAlign=middle;whiteSpace=wrap;rounded=0;" vertex="1" parent="1">
          <mxGeometry x="370" y="490" width="20" height="20" as="geometry" />
        </mxCell>
        <mxCell id="4ADDRqXZQ-zMWjjHX7WN-96" value="1" style="text;html=1;strokeColor=none;fillColor=none;align=center;verticalAlign=middle;whiteSpace=wrap;rounded=0;" vertex="1" parent="1">
          <mxGeometry x="410" y="490" width="20" height="20" as="geometry" />
        </mxCell>
        <mxCell id="4ADDRqXZQ-zMWjjHX7WN-97" value="" style="edgeStyle=orthogonalEdgeStyle;rounded=0;orthogonalLoop=1;jettySize=auto;html=1;endArrow=none;endFill=0;" edge="1" parent="1" source="4ADDRqXZQ-zMWjjHX7WN-98" target="4ADDRqXZQ-zMWjjHX7WN-101">
          <mxGeometry relative="1" as="geometry" />
        </mxCell>
        <mxCell id="4ADDRqXZQ-zMWjjHX7WN-98" value="사람" style="rounded=0;whiteSpace=wrap;html=1;" vertex="1" parent="1">
          <mxGeometry x="130" y="580" width="120" height="60" as="geometry" />
        </mxCell>
        <mxCell id="4ADDRqXZQ-zMWjjHX7WN-99" value="지문" style="rounded=0;whiteSpace=wrap;html=1;" vertex="1" parent="1">
          <mxGeometry x="430" y="580" width="120" height="60" as="geometry" />
        </mxCell>
        <mxCell id="4ADDRqXZQ-zMWjjHX7WN-100" value="" style="edgeStyle=orthogonalEdgeStyle;rounded=0;orthogonalLoop=1;jettySize=auto;html=1;endArrow=none;endFill=0;" edge="1" parent="1" source="4ADDRqXZQ-zMWjjHX7WN-101" target="4ADDRqXZQ-zMWjjHX7WN-99">
          <mxGeometry relative="1" as="geometry" />
        </mxCell>
        <mxCell id="4ADDRqXZQ-zMWjjHX7WN-101" value="소유" style="rhombus;whiteSpace=wrap;html=1;" vertex="1" parent="1">
          <mxGeometry x="310" y="580" width="60" height="60" as="geometry" />
        </mxCell>
        <mxCell id="4ADDRqXZQ-zMWjjHX7WN-102" value="1" style="text;html=1;strokeColor=none;fillColor=none;align=center;verticalAlign=middle;whiteSpace=wrap;rounded=0;" vertex="1" parent="1">
          <mxGeometry x="250" y="590" width="20" height="20" as="geometry" />
        </mxCell>
        <mxCell id="4ADDRqXZQ-zMWjjHX7WN-103" value="1" style="text;html=1;strokeColor=none;fillColor=none;align=center;verticalAlign=middle;whiteSpace=wrap;rounded=0;" vertex="1" parent="1">
          <mxGeometry x="290" y="590" width="20" height="20" as="geometry" />
        </mxCell>
        <mxCell id="4ADDRqXZQ-zMWjjHX7WN-104" value="1" style="text;html=1;strokeColor=none;fillColor=none;align=center;verticalAlign=middle;whiteSpace=wrap;rounded=0;" vertex="1" parent="1">
          <mxGeometry x="370" y="590" width="20" height="20" as="geometry" />
        </mxCell>
        <mxCell id="4ADDRqXZQ-zMWjjHX7WN-105" value="1" style="text;html=1;strokeColor=none;fillColor=none;align=center;verticalAlign=middle;whiteSpace=wrap;rounded=0;" vertex="1" parent="1">
          <mxGeometry x="410" y="590" width="20" height="20" as="geometry" />
        </mxCell>
        <mxCell id="4ADDRqXZQ-zMWjjHX7WN-107" value="주민번호" style="ellipse;whiteSpace=wrap;html=1;" vertex="1" parent="1">
          <mxGeometry x="132.5" y="650" width="50" height="40" as="geometry" />
        </mxCell>
        <mxCell id="4ADDRqXZQ-zMWjjHX7WN-108" value="이름" style="ellipse;whiteSpace=wrap;html=1;" vertex="1" parent="1">
          <mxGeometry x="197.5" y="650" width="50" height="40" as="geometry" />
        </mxCell>
        <mxCell id="4ADDRqXZQ-zMWjjHX7WN-112" value="지문 ID" style="ellipse;whiteSpace=wrap;html=1;" vertex="1" parent="1">
          <mxGeometry x="415" y="650" width="50" height="40" as="geometry" />
        </mxCell>
        <mxCell id="4ADDRqXZQ-zMWjjHX7WN-113" value="엄지&lt;br&gt;이미지" style="ellipse;whiteSpace=wrap;html=1;" vertex="1" parent="1">
          <mxGeometry x="465" y="650" width="50" height="40" as="geometry" />
        </mxCell>
        <mxCell id="4ADDRqXZQ-zMWjjHX7WN-114" value="검지&lt;br&gt;이미지" style="ellipse;whiteSpace=wrap;html=1;" vertex="1" parent="1">
          <mxGeometry x="515" y="650" width="50" height="40" as="geometry" />
        </mxCell>
        <mxCell id="4ADDRqXZQ-zMWjjHX7WN-115" value="테이블간 관계가 1:N" style="text;html=1;strokeColor=none;fillColor=none;align=center;verticalAlign=middle;whiteSpace=wrap;rounded=0;" vertex="1" parent="1">
          <mxGeometry x="130" y="730" width="160" height="30" as="geometry" />
        </mxCell>
        <mxCell id="4ADDRqXZQ-zMWjjHX7WN-116" value="&lt;u&gt;사번&lt;br&gt;&lt;/u&gt;&lt;u style=&quot;border-color: var(--border-color);&quot;&gt;(PK)&lt;/u&gt;&lt;u&gt;&lt;br&gt;&lt;/u&gt;" style="ellipse;whiteSpace=wrap;html=1;" vertex="1" parent="1">
          <mxGeometry x="90" y="850" width="50" height="40" as="geometry" />
        </mxCell>
        <mxCell id="4ADDRqXZQ-zMWjjHX7WN-117" value="이름" style="ellipse;whiteSpace=wrap;html=1;" vertex="1" parent="1">
          <mxGeometry x="190" y="850" width="50" height="40" as="geometry" />
        </mxCell>
        <mxCell id="4ADDRqXZQ-zMWjjHX7WN-118" value="부서ID&lt;br&gt;(FK)" style="ellipse;whiteSpace=wrap;html=1;" vertex="1" parent="1">
          <mxGeometry x="140" y="850" width="50" height="40" as="geometry" />
        </mxCell>
        <mxCell id="4ADDRqXZQ-zMWjjHX7WN-119" value="&lt;u&gt;부서ID&lt;br&gt;(PK)&lt;br&gt;&lt;/u&gt;" style="ellipse;whiteSpace=wrap;html=1;" vertex="1" parent="1">
          <mxGeometry x="415" y="850" width="50" height="40" as="geometry" />
        </mxCell>
        <mxCell id="4ADDRqXZQ-zMWjjHX7WN-120" value="부서명" style="ellipse;whiteSpace=wrap;html=1;" vertex="1" parent="1">
          <mxGeometry x="465" y="850" width="50" height="40" as="geometry" />
        </mxCell>
        <mxCell id="4ADDRqXZQ-zMWjjHX7WN-121" value="인원" style="ellipse;whiteSpace=wrap;html=1;" vertex="1" parent="1">
          <mxGeometry x="515" y="850" width="50" height="40" as="geometry" />
        </mxCell>
        <mxCell id="4ADDRqXZQ-zMWjjHX7WN-123" value="연락처" style="ellipse;whiteSpace=wrap;html=1;" vertex="1" parent="1">
          <mxGeometry x="240" y="850" width="50" height="40" as="geometry" />
        </mxCell>
        <mxCell id="4ADDRqXZQ-zMWjjHX7WN-150" value="" style="edgeStyle=orthogonalEdgeStyle;rounded=0;orthogonalLoop=1;jettySize=auto;html=1;startArrow=ERoneToMany;startFill=0;endArrow=ERmandOne;endFill=0;" edge="1" parent="1" source="4ADDRqXZQ-zMWjjHX7WN-124" target="4ADDRqXZQ-zMWjjHX7WN-137">
          <mxGeometry relative="1" as="geometry" />
        </mxCell>
        <mxCell id="4ADDRqXZQ-zMWjjHX7WN-124" value="직원" style="shape=table;startSize=30;container=1;collapsible=1;childLayout=tableLayout;fixedRows=1;rowLines=0;fontStyle=1;align=center;resizeLast=1;html=1;" vertex="1" parent="1">
          <mxGeometry x="620" y="765" width="180" height="180" as="geometry" />
        </mxCell>
        <mxCell id="4ADDRqXZQ-zMWjjHX7WN-125" value="" style="shape=tableRow;horizontal=0;startSize=0;swimlaneHead=0;swimlaneBody=0;fillColor=none;collapsible=0;dropTarget=0;points=[[0,0.5],[1,0.5]];portConstraint=eastwest;top=0;left=0;right=0;bottom=1;" vertex="1" parent="4ADDRqXZQ-zMWjjHX7WN-124">
          <mxGeometry y="30" width="180" height="30" as="geometry" />
        </mxCell>
        <mxCell id="4ADDRqXZQ-zMWjjHX7WN-126" value="PK" style="shape=partialRectangle;connectable=0;fillColor=none;top=0;left=0;bottom=0;right=0;fontStyle=1;overflow=hidden;whiteSpace=wrap;html=1;" vertex="1" parent="4ADDRqXZQ-zMWjjHX7WN-125">
          <mxGeometry width="30" height="30" as="geometry">
            <mxRectangle width="30" height="30" as="alternateBounds" />
          </mxGeometry>
        </mxCell>
        <mxCell id="4ADDRqXZQ-zMWjjHX7WN-127" value="사번" style="shape=partialRectangle;connectable=0;fillColor=none;top=0;left=0;bottom=0;right=0;align=left;spacingLeft=6;fontStyle=5;overflow=hidden;whiteSpace=wrap;html=1;" vertex="1" parent="4ADDRqXZQ-zMWjjHX7WN-125">
          <mxGeometry x="30" width="150" height="30" as="geometry">
            <mxRectangle width="150" height="30" as="alternateBounds" />
          </mxGeometry>
        </mxCell>
        <mxCell id="4ADDRqXZQ-zMWjjHX7WN-153" value="" style="shape=tableRow;horizontal=0;startSize=0;swimlaneHead=0;swimlaneBody=0;fillColor=none;collapsible=0;dropTarget=0;points=[[0,0.5],[1,0.5]];portConstraint=eastwest;top=0;left=0;right=0;bottom=1;" vertex="1" parent="4ADDRqXZQ-zMWjjHX7WN-124">
          <mxGeometry y="60" width="180" height="30" as="geometry" />
        </mxCell>
        <mxCell id="4ADDRqXZQ-zMWjjHX7WN-154" value="FK" style="shape=partialRectangle;connectable=0;fillColor=none;top=0;left=0;bottom=0;right=0;fontStyle=1;overflow=hidden;whiteSpace=wrap;html=1;" vertex="1" parent="4ADDRqXZQ-zMWjjHX7WN-153">
          <mxGeometry width="30" height="30" as="geometry">
            <mxRectangle width="30" height="30" as="alternateBounds" />
          </mxGeometry>
        </mxCell>
        <mxCell id="4ADDRqXZQ-zMWjjHX7WN-155" value="부서 ID" style="shape=partialRectangle;connectable=0;fillColor=none;top=0;left=0;bottom=0;right=0;align=left;spacingLeft=6;fontStyle=5;overflow=hidden;whiteSpace=wrap;html=1;" vertex="1" parent="4ADDRqXZQ-zMWjjHX7WN-153">
          <mxGeometry x="30" width="150" height="30" as="geometry">
            <mxRectangle width="150" height="30" as="alternateBounds" />
          </mxGeometry>
        </mxCell>
        <mxCell id="4ADDRqXZQ-zMWjjHX7WN-128" value="" style="shape=tableRow;horizontal=0;startSize=0;swimlaneHead=0;swimlaneBody=0;fillColor=none;collapsible=0;dropTarget=0;points=[[0,0.5],[1,0.5]];portConstraint=eastwest;top=0;left=0;right=0;bottom=0;" vertex="1" parent="4ADDRqXZQ-zMWjjHX7WN-124">
          <mxGeometry y="90" width="180" height="30" as="geometry" />
        </mxCell>
        <mxCell id="4ADDRqXZQ-zMWjjHX7WN-129" value="" style="shape=partialRectangle;connectable=0;fillColor=none;top=0;left=0;bottom=0;right=0;editable=1;overflow=hidden;whiteSpace=wrap;html=1;" vertex="1" parent="4ADDRqXZQ-zMWjjHX7WN-128">
          <mxGeometry width="30" height="30" as="geometry">
            <mxRectangle width="30" height="30" as="alternateBounds" />
          </mxGeometry>
        </mxCell>
        <mxCell id="4ADDRqXZQ-zMWjjHX7WN-130" value="이름" style="shape=partialRectangle;connectable=0;fillColor=none;top=0;left=0;bottom=0;right=0;align=left;spacingLeft=6;overflow=hidden;whiteSpace=wrap;html=1;" vertex="1" parent="4ADDRqXZQ-zMWjjHX7WN-128">
          <mxGeometry x="30" width="150" height="30" as="geometry">
            <mxRectangle width="150" height="30" as="alternateBounds" />
          </mxGeometry>
        </mxCell>
        <mxCell id="4ADDRqXZQ-zMWjjHX7WN-131" value="" style="shape=tableRow;horizontal=0;startSize=0;swimlaneHead=0;swimlaneBody=0;fillColor=none;collapsible=0;dropTarget=0;points=[[0,0.5],[1,0.5]];portConstraint=eastwest;top=0;left=0;right=0;bottom=0;" vertex="1" parent="4ADDRqXZQ-zMWjjHX7WN-124">
          <mxGeometry y="120" width="180" height="30" as="geometry" />
        </mxCell>
        <mxCell id="4ADDRqXZQ-zMWjjHX7WN-132" value="" style="shape=partialRectangle;connectable=0;fillColor=none;top=0;left=0;bottom=0;right=0;editable=1;overflow=hidden;whiteSpace=wrap;html=1;" vertex="1" parent="4ADDRqXZQ-zMWjjHX7WN-131">
          <mxGeometry width="30" height="30" as="geometry">
            <mxRectangle width="30" height="30" as="alternateBounds" />
          </mxGeometry>
        </mxCell>
        <mxCell id="4ADDRqXZQ-zMWjjHX7WN-133" value="직책" style="shape=partialRectangle;connectable=0;fillColor=none;top=0;left=0;bottom=0;right=0;align=left;spacingLeft=6;overflow=hidden;whiteSpace=wrap;html=1;" vertex="1" parent="4ADDRqXZQ-zMWjjHX7WN-131">
          <mxGeometry x="30" width="150" height="30" as="geometry">
            <mxRectangle width="150" height="30" as="alternateBounds" />
          </mxGeometry>
        </mxCell>
        <mxCell id="4ADDRqXZQ-zMWjjHX7WN-134" value="" style="shape=tableRow;horizontal=0;startSize=0;swimlaneHead=0;swimlaneBody=0;fillColor=none;collapsible=0;dropTarget=0;points=[[0,0.5],[1,0.5]];portConstraint=eastwest;top=0;left=0;right=0;bottom=0;" vertex="1" parent="4ADDRqXZQ-zMWjjHX7WN-124">
          <mxGeometry y="150" width="180" height="30" as="geometry" />
        </mxCell>
        <mxCell id="4ADDRqXZQ-zMWjjHX7WN-135" value="" style="shape=partialRectangle;connectable=0;fillColor=none;top=0;left=0;bottom=0;right=0;editable=1;overflow=hidden;whiteSpace=wrap;html=1;" vertex="1" parent="4ADDRqXZQ-zMWjjHX7WN-134">
          <mxGeometry width="30" height="30" as="geometry">
            <mxRectangle width="30" height="30" as="alternateBounds" />
          </mxGeometry>
        </mxCell>
        <mxCell id="4ADDRqXZQ-zMWjjHX7WN-136" value="연락처" style="shape=partialRectangle;connectable=0;fillColor=none;top=0;left=0;bottom=0;right=0;align=left;spacingLeft=6;overflow=hidden;whiteSpace=wrap;html=1;" vertex="1" parent="4ADDRqXZQ-zMWjjHX7WN-134">
          <mxGeometry x="30" width="150" height="30" as="geometry">
            <mxRectangle width="150" height="30" as="alternateBounds" />
          </mxGeometry>
        </mxCell>
        <mxCell id="4ADDRqXZQ-zMWjjHX7WN-137" value="Table" style="shape=table;startSize=30;container=1;collapsible=1;childLayout=tableLayout;fixedRows=1;rowLines=0;fontStyle=1;align=center;resizeLast=1;html=1;" vertex="1" parent="1">
          <mxGeometry x="880" y="795" width="180" height="120" as="geometry" />
        </mxCell>
        <mxCell id="4ADDRqXZQ-zMWjjHX7WN-138" value="" style="shape=tableRow;horizontal=0;startSize=0;swimlaneHead=0;swimlaneBody=0;fillColor=none;collapsible=0;dropTarget=0;points=[[0,0.5],[1,0.5]];portConstraint=eastwest;top=0;left=0;right=0;bottom=1;" vertex="1" parent="4ADDRqXZQ-zMWjjHX7WN-137">
          <mxGeometry y="30" width="180" height="30" as="geometry" />
        </mxCell>
        <mxCell id="4ADDRqXZQ-zMWjjHX7WN-139" value="PK" style="shape=partialRectangle;connectable=0;fillColor=none;top=0;left=0;bottom=0;right=0;fontStyle=1;overflow=hidden;whiteSpace=wrap;html=1;" vertex="1" parent="4ADDRqXZQ-zMWjjHX7WN-138">
          <mxGeometry width="30" height="30" as="geometry">
            <mxRectangle width="30" height="30" as="alternateBounds" />
          </mxGeometry>
        </mxCell>
        <mxCell id="4ADDRqXZQ-zMWjjHX7WN-140" value="부서ID" style="shape=partialRectangle;connectable=0;fillColor=none;top=0;left=0;bottom=0;right=0;align=left;spacingLeft=6;fontStyle=5;overflow=hidden;whiteSpace=wrap;html=1;" vertex="1" parent="4ADDRqXZQ-zMWjjHX7WN-138">
          <mxGeometry x="30" width="150" height="30" as="geometry">
            <mxRectangle width="150" height="30" as="alternateBounds" />
          </mxGeometry>
        </mxCell>
        <mxCell id="4ADDRqXZQ-zMWjjHX7WN-141" value="" style="shape=tableRow;horizontal=0;startSize=0;swimlaneHead=0;swimlaneBody=0;fillColor=none;collapsible=0;dropTarget=0;points=[[0,0.5],[1,0.5]];portConstraint=eastwest;top=0;left=0;right=0;bottom=0;" vertex="1" parent="4ADDRqXZQ-zMWjjHX7WN-137">
          <mxGeometry y="60" width="180" height="30" as="geometry" />
        </mxCell>
        <mxCell id="4ADDRqXZQ-zMWjjHX7WN-142" value="" style="shape=partialRectangle;connectable=0;fillColor=none;top=0;left=0;bottom=0;right=0;editable=1;overflow=hidden;whiteSpace=wrap;html=1;" vertex="1" parent="4ADDRqXZQ-zMWjjHX7WN-141">
          <mxGeometry width="30" height="30" as="geometry">
            <mxRectangle width="30" height="30" as="alternateBounds" />
          </mxGeometry>
        </mxCell>
        <mxCell id="4ADDRqXZQ-zMWjjHX7WN-143" value="부서명" style="shape=partialRectangle;connectable=0;fillColor=none;top=0;left=0;bottom=0;right=0;align=left;spacingLeft=6;overflow=hidden;whiteSpace=wrap;html=1;" vertex="1" parent="4ADDRqXZQ-zMWjjHX7WN-141">
          <mxGeometry x="30" width="150" height="30" as="geometry">
            <mxRectangle width="150" height="30" as="alternateBounds" />
          </mxGeometry>
        </mxCell>
        <mxCell id="4ADDRqXZQ-zMWjjHX7WN-144" value="" style="shape=tableRow;horizontal=0;startSize=0;swimlaneHead=0;swimlaneBody=0;fillColor=none;collapsible=0;dropTarget=0;points=[[0,0.5],[1,0.5]];portConstraint=eastwest;top=0;left=0;right=0;bottom=0;" vertex="1" parent="4ADDRqXZQ-zMWjjHX7WN-137">
          <mxGeometry y="90" width="180" height="30" as="geometry" />
        </mxCell>
        <mxCell id="4ADDRqXZQ-zMWjjHX7WN-145" value="" style="shape=partialRectangle;connectable=0;fillColor=none;top=0;left=0;bottom=0;right=0;editable=1;overflow=hidden;whiteSpace=wrap;html=1;" vertex="1" parent="4ADDRqXZQ-zMWjjHX7WN-144">
          <mxGeometry width="30" height="30" as="geometry">
            <mxRectangle width="30" height="30" as="alternateBounds" />
          </mxGeometry>
        </mxCell>
        <mxCell id="4ADDRqXZQ-zMWjjHX7WN-146" value="인원" style="shape=partialRectangle;connectable=0;fillColor=none;top=0;left=0;bottom=0;right=0;align=left;spacingLeft=6;overflow=hidden;whiteSpace=wrap;html=1;" vertex="1" parent="4ADDRqXZQ-zMWjjHX7WN-144">
          <mxGeometry x="30" width="150" height="30" as="geometry">
            <mxRectangle width="150" height="30" as="alternateBounds" />
          </mxGeometry>
        </mxCell>
        <mxCell id="4ADDRqXZQ-zMWjjHX7WN-151" value="상위/부모" style="text;html=1;strokeColor=none;fillColor=none;align=center;verticalAlign=middle;whiteSpace=wrap;rounded=0;" vertex="1" parent="1">
          <mxGeometry x="880" y="740" width="60" height="30" as="geometry" />
        </mxCell>
        <mxCell id="4ADDRqXZQ-zMWjjHX7WN-152" value="하위/자식" style="text;html=1;strokeColor=none;fillColor=none;align=center;verticalAlign=middle;whiteSpace=wrap;rounded=0;" vertex="1" parent="1">
          <mxGeometry x="620" y="730" width="60" height="30" as="geometry" />
        </mxCell>
        <mxCell id="4ADDRqXZQ-zMWjjHX7WN-156" value="" style="edgeStyle=orthogonalEdgeStyle;rounded=0;orthogonalLoop=1;jettySize=auto;html=1;endArrow=none;endFill=0;" edge="1" parent="1" source="4ADDRqXZQ-zMWjjHX7WN-157" target="4ADDRqXZQ-zMWjjHX7WN-160">
          <mxGeometry relative="1" as="geometry" />
        </mxCell>
        <mxCell id="4ADDRqXZQ-zMWjjHX7WN-157" value="컴퓨터 본체" style="rounded=0;whiteSpace=wrap;html=1;" vertex="1" parent="1">
          <mxGeometry x="130" y="1000" width="120" height="60" as="geometry" />
        </mxCell>
        <mxCell id="4ADDRqXZQ-zMWjjHX7WN-158" value="모니터" style="rounded=0;whiteSpace=wrap;html=1;" vertex="1" parent="1">
          <mxGeometry x="430" y="1000" width="120" height="60" as="geometry" />
        </mxCell>
        <mxCell id="4ADDRqXZQ-zMWjjHX7WN-159" value="" style="edgeStyle=orthogonalEdgeStyle;rounded=0;orthogonalLoop=1;jettySize=auto;html=1;endArrow=none;endFill=0;" edge="1" parent="1" source="4ADDRqXZQ-zMWjjHX7WN-160" target="4ADDRqXZQ-zMWjjHX7WN-158">
          <mxGeometry relative="1" as="geometry" />
        </mxCell>
        <mxCell id="4ADDRqXZQ-zMWjjHX7WN-160" value="출력" style="rhombus;whiteSpace=wrap;html=1;" vertex="1" parent="1">
          <mxGeometry x="310" y="1000" width="60" height="60" as="geometry" />
        </mxCell>
        <mxCell id="4ADDRqXZQ-zMWjjHX7WN-161" value="1" style="text;html=1;strokeColor=none;fillColor=none;align=center;verticalAlign=middle;whiteSpace=wrap;rounded=0;" vertex="1" parent="1">
          <mxGeometry x="250" y="1010" width="20" height="20" as="geometry" />
        </mxCell>
        <mxCell id="4ADDRqXZQ-zMWjjHX7WN-162" value="N" style="text;html=1;strokeColor=none;fillColor=none;align=center;verticalAlign=middle;whiteSpace=wrap;rounded=0;" vertex="1" parent="1">
          <mxGeometry x="290" y="1010" width="20" height="20" as="geometry" />
        </mxCell>
        <mxCell id="4ADDRqXZQ-zMWjjHX7WN-163" value="1" style="text;html=1;strokeColor=none;fillColor=none;align=center;verticalAlign=middle;whiteSpace=wrap;rounded=0;" vertex="1" parent="1">
          <mxGeometry x="410" y="1010" width="20" height="20" as="geometry" />
        </mxCell>
        <mxCell id="4ADDRqXZQ-zMWjjHX7WN-164" value="1" style="text;html=1;strokeColor=none;fillColor=none;align=center;verticalAlign=middle;whiteSpace=wrap;rounded=0;" vertex="1" parent="1">
          <mxGeometry x="370" y="1010" width="20" height="20" as="geometry" />
        </mxCell>
        <mxCell id="4ADDRqXZQ-zMWjjHX7WN-165" value="&lt;u&gt;모니터&lt;br&gt;ID&lt;br&gt;&lt;/u&gt;" style="ellipse;whiteSpace=wrap;html=1;" vertex="1" parent="1">
          <mxGeometry x="415" y="1070" width="55" height="40" as="geometry" />
        </mxCell>
        <mxCell id="4ADDRqXZQ-zMWjjHX7WN-166" value="모니터명" style="ellipse;whiteSpace=wrap;html=1;" vertex="1" parent="1">
          <mxGeometry x="520" y="1070" width="50" height="40" as="geometry" />
        </mxCell>
        <mxCell id="4ADDRqXZQ-zMWjjHX7WN-168" value="&lt;u&gt;CPU ID&lt;br&gt;&lt;/u&gt;" style="ellipse;whiteSpace=wrap;html=1;" vertex="1" parent="1">
          <mxGeometry x="115" y="1070" width="50" height="40" as="geometry" />
        </mxCell>
        <mxCell id="4ADDRqXZQ-zMWjjHX7WN-169" value="그래픽&lt;br&gt;카드" style="ellipse;whiteSpace=wrap;html=1;" vertex="1" parent="1">
          <mxGeometry x="165" y="1070" width="50" height="40" as="geometry" />
        </mxCell>
        <mxCell id="4ADDRqXZQ-zMWjjHX7WN-170" value="메모리" style="ellipse;whiteSpace=wrap;html=1;" vertex="1" parent="1">
          <mxGeometry x="215" y="1070" width="50" height="40" as="geometry" />
        </mxCell>
        <mxCell id="4ADDRqXZQ-zMWjjHX7WN-171" value="" style="edgeStyle=orthogonalEdgeStyle;rounded=0;orthogonalLoop=1;jettySize=auto;html=1;startArrow=ERoneToMany;startFill=0;endArrow=ERmandOne;endFill=0;" edge="1" parent="1" source="4ADDRqXZQ-zMWjjHX7WN-172" target="4ADDRqXZQ-zMWjjHX7WN-188">
          <mxGeometry relative="1" as="geometry" />
        </mxCell>
        <mxCell id="4ADDRqXZQ-zMWjjHX7WN-172" value="모니터" style="shape=table;startSize=30;container=1;collapsible=1;childLayout=tableLayout;fixedRows=1;rowLines=0;fontStyle=1;align=center;resizeLast=1;html=1;" vertex="1" parent="1">
          <mxGeometry x="620" y="1000" width="180" height="120" as="geometry" />
        </mxCell>
        <mxCell id="4ADDRqXZQ-zMWjjHX7WN-173" value="" style="shape=tableRow;horizontal=0;startSize=0;swimlaneHead=0;swimlaneBody=0;fillColor=none;collapsible=0;dropTarget=0;points=[[0,0.5],[1,0.5]];portConstraint=eastwest;top=0;left=0;right=0;bottom=1;" vertex="1" parent="4ADDRqXZQ-zMWjjHX7WN-172">
          <mxGeometry y="30" width="180" height="30" as="geometry" />
        </mxCell>
        <mxCell id="4ADDRqXZQ-zMWjjHX7WN-174" value="PK" style="shape=partialRectangle;connectable=0;fillColor=none;top=0;left=0;bottom=0;right=0;fontStyle=1;overflow=hidden;whiteSpace=wrap;html=1;" vertex="1" parent="4ADDRqXZQ-zMWjjHX7WN-173">
          <mxGeometry width="30" height="30" as="geometry">
            <mxRectangle width="30" height="30" as="alternateBounds" />
          </mxGeometry>
        </mxCell>
        <mxCell id="4ADDRqXZQ-zMWjjHX7WN-175" value="모니터 ID" style="shape=partialRectangle;connectable=0;fillColor=none;top=0;left=0;bottom=0;right=0;align=left;spacingLeft=6;fontStyle=5;overflow=hidden;whiteSpace=wrap;html=1;" vertex="1" parent="4ADDRqXZQ-zMWjjHX7WN-173">
          <mxGeometry x="30" width="150" height="30" as="geometry">
            <mxRectangle width="150" height="30" as="alternateBounds" />
          </mxGeometry>
        </mxCell>
        <mxCell id="4ADDRqXZQ-zMWjjHX7WN-176" value="" style="shape=tableRow;horizontal=0;startSize=0;swimlaneHead=0;swimlaneBody=0;fillColor=none;collapsible=0;dropTarget=0;points=[[0,0.5],[1,0.5]];portConstraint=eastwest;top=0;left=0;right=0;bottom=1;" vertex="1" parent="4ADDRqXZQ-zMWjjHX7WN-172">
          <mxGeometry y="60" width="180" height="30" as="geometry" />
        </mxCell>
        <mxCell id="4ADDRqXZQ-zMWjjHX7WN-177" value="FK" style="shape=partialRectangle;connectable=0;fillColor=none;top=0;left=0;bottom=0;right=0;fontStyle=1;overflow=hidden;whiteSpace=wrap;html=1;" vertex="1" parent="4ADDRqXZQ-zMWjjHX7WN-176">
          <mxGeometry width="30" height="30" as="geometry">
            <mxRectangle width="30" height="30" as="alternateBounds" />
          </mxGeometry>
        </mxCell>
        <mxCell id="4ADDRqXZQ-zMWjjHX7WN-178" value="CPU ID" style="shape=partialRectangle;connectable=0;fillColor=none;top=0;left=0;bottom=0;right=0;align=left;spacingLeft=6;fontStyle=5;overflow=hidden;whiteSpace=wrap;html=1;" vertex="1" parent="4ADDRqXZQ-zMWjjHX7WN-176">
          <mxGeometry x="30" width="150" height="30" as="geometry">
            <mxRectangle width="150" height="30" as="alternateBounds" />
          </mxGeometry>
        </mxCell>
        <mxCell id="4ADDRqXZQ-zMWjjHX7WN-179" value="" style="shape=tableRow;horizontal=0;startSize=0;swimlaneHead=0;swimlaneBody=0;fillColor=none;collapsible=0;dropTarget=0;points=[[0,0.5],[1,0.5]];portConstraint=eastwest;top=0;left=0;right=0;bottom=0;" vertex="1" parent="4ADDRqXZQ-zMWjjHX7WN-172">
          <mxGeometry y="90" width="180" height="30" as="geometry" />
        </mxCell>
        <mxCell id="4ADDRqXZQ-zMWjjHX7WN-180" value="" style="shape=partialRectangle;connectable=0;fillColor=none;top=0;left=0;bottom=0;right=0;editable=1;overflow=hidden;whiteSpace=wrap;html=1;" vertex="1" parent="4ADDRqXZQ-zMWjjHX7WN-179">
          <mxGeometry width="30" height="30" as="geometry">
            <mxRectangle width="30" height="30" as="alternateBounds" />
          </mxGeometry>
        </mxCell>
        <mxCell id="4ADDRqXZQ-zMWjjHX7WN-181" value="모니터명" style="shape=partialRectangle;connectable=0;fillColor=none;top=0;left=0;bottom=0;right=0;align=left;spacingLeft=6;overflow=hidden;whiteSpace=wrap;html=1;" vertex="1" parent="4ADDRqXZQ-zMWjjHX7WN-179">
          <mxGeometry x="30" width="150" height="30" as="geometry">
            <mxRectangle width="150" height="30" as="alternateBounds" />
          </mxGeometry>
        </mxCell>
        <mxCell id="4ADDRqXZQ-zMWjjHX7WN-188" value="컴퓨터 본체" style="shape=table;startSize=30;container=1;collapsible=1;childLayout=tableLayout;fixedRows=1;rowLines=0;fontStyle=1;align=center;resizeLast=1;html=1;" vertex="1" parent="1">
          <mxGeometry x="880" y="1000" width="180" height="120" as="geometry" />
        </mxCell>
        <mxCell id="4ADDRqXZQ-zMWjjHX7WN-189" value="" style="shape=tableRow;horizontal=0;startSize=0;swimlaneHead=0;swimlaneBody=0;fillColor=none;collapsible=0;dropTarget=0;points=[[0,0.5],[1,0.5]];portConstraint=eastwest;top=0;left=0;right=0;bottom=1;" vertex="1" parent="4ADDRqXZQ-zMWjjHX7WN-188">
          <mxGeometry y="30" width="180" height="30" as="geometry" />
        </mxCell>
        <mxCell id="4ADDRqXZQ-zMWjjHX7WN-190" value="PK" style="shape=partialRectangle;connectable=0;fillColor=none;top=0;left=0;bottom=0;right=0;fontStyle=1;overflow=hidden;whiteSpace=wrap;html=1;" vertex="1" parent="4ADDRqXZQ-zMWjjHX7WN-189">
          <mxGeometry width="30" height="30" as="geometry">
            <mxRectangle width="30" height="30" as="alternateBounds" />
          </mxGeometry>
        </mxCell>
        <mxCell id="4ADDRqXZQ-zMWjjHX7WN-191" value="CPU ID" style="shape=partialRectangle;connectable=0;fillColor=none;top=0;left=0;bottom=0;right=0;align=left;spacingLeft=6;fontStyle=5;overflow=hidden;whiteSpace=wrap;html=1;" vertex="1" parent="4ADDRqXZQ-zMWjjHX7WN-189">
          <mxGeometry x="30" width="150" height="30" as="geometry">
            <mxRectangle width="150" height="30" as="alternateBounds" />
          </mxGeometry>
        </mxCell>
        <mxCell id="4ADDRqXZQ-zMWjjHX7WN-192" value="" style="shape=tableRow;horizontal=0;startSize=0;swimlaneHead=0;swimlaneBody=0;fillColor=none;collapsible=0;dropTarget=0;points=[[0,0.5],[1,0.5]];portConstraint=eastwest;top=0;left=0;right=0;bottom=0;" vertex="1" parent="4ADDRqXZQ-zMWjjHX7WN-188">
          <mxGeometry y="60" width="180" height="30" as="geometry" />
        </mxCell>
        <mxCell id="4ADDRqXZQ-zMWjjHX7WN-193" value="" style="shape=partialRectangle;connectable=0;fillColor=none;top=0;left=0;bottom=0;right=0;editable=1;overflow=hidden;whiteSpace=wrap;html=1;" vertex="1" parent="4ADDRqXZQ-zMWjjHX7WN-192">
          <mxGeometry width="30" height="30" as="geometry">
            <mxRectangle width="30" height="30" as="alternateBounds" />
          </mxGeometry>
        </mxCell>
        <mxCell id="4ADDRqXZQ-zMWjjHX7WN-194" value="그래픽카드" style="shape=partialRectangle;connectable=0;fillColor=none;top=0;left=0;bottom=0;right=0;align=left;spacingLeft=6;overflow=hidden;whiteSpace=wrap;html=1;" vertex="1" parent="4ADDRqXZQ-zMWjjHX7WN-192">
          <mxGeometry x="30" width="150" height="30" as="geometry">
            <mxRectangle width="150" height="30" as="alternateBounds" />
          </mxGeometry>
        </mxCell>
        <mxCell id="4ADDRqXZQ-zMWjjHX7WN-195" value="" style="shape=tableRow;horizontal=0;startSize=0;swimlaneHead=0;swimlaneBody=0;fillColor=none;collapsible=0;dropTarget=0;points=[[0,0.5],[1,0.5]];portConstraint=eastwest;top=0;left=0;right=0;bottom=0;" vertex="1" parent="4ADDRqXZQ-zMWjjHX7WN-188">
          <mxGeometry y="90" width="180" height="30" as="geometry" />
        </mxCell>
        <mxCell id="4ADDRqXZQ-zMWjjHX7WN-196" value="" style="shape=partialRectangle;connectable=0;fillColor=none;top=0;left=0;bottom=0;right=0;editable=1;overflow=hidden;whiteSpace=wrap;html=1;" vertex="1" parent="4ADDRqXZQ-zMWjjHX7WN-195">
          <mxGeometry width="30" height="30" as="geometry">
            <mxRectangle width="30" height="30" as="alternateBounds" />
          </mxGeometry>
        </mxCell>
        <mxCell id="4ADDRqXZQ-zMWjjHX7WN-197" value="메모리" style="shape=partialRectangle;connectable=0;fillColor=none;top=0;left=0;bottom=0;right=0;align=left;spacingLeft=6;overflow=hidden;whiteSpace=wrap;html=1;" vertex="1" parent="4ADDRqXZQ-zMWjjHX7WN-195">
          <mxGeometry x="30" width="150" height="30" as="geometry">
            <mxRectangle width="150" height="30" as="alternateBounds" />
          </mxGeometry>
        </mxCell>
        <mxCell id="4ADDRqXZQ-zMWjjHX7WN-199" value="CPU ID" style="ellipse;whiteSpace=wrap;html=1;" vertex="1" parent="1">
          <mxGeometry x="470" y="1070" width="50" height="40" as="geometry" />
        </mxCell>
        <mxCell id="4ADDRqXZQ-zMWjjHX7WN-244" value="&lt;u&gt;L_ID&lt;br&gt;(PK)&lt;br&gt;&lt;/u&gt;" style="ellipse;whiteSpace=wrap;html=1;" vertex="1" parent="1">
          <mxGeometry x="65" y="1490" width="50" height="40" as="geometry" />
        </mxCell>
        <mxCell id="4ADDRqXZQ-zMWjjHX7WN-245" value="강의명" style="ellipse;whiteSpace=wrap;html=1;" vertex="1" parent="1">
          <mxGeometry x="115" y="1490" width="50" height="40" as="geometry" />
        </mxCell>
        <mxCell id="4ADDRqXZQ-zMWjjHX7WN-246" value="강의장명" style="ellipse;whiteSpace=wrap;html=1;" vertex="1" parent="1">
          <mxGeometry x="165" y="1490" width="50" height="40" as="geometry" />
        </mxCell>
        <mxCell id="4ADDRqXZQ-zMWjjHX7WN-247" value="강사명" style="ellipse;whiteSpace=wrap;html=1;" vertex="1" parent="1">
          <mxGeometry x="215" y="1490" width="50" height="40" as="geometry" />
        </mxCell>
        <mxCell id="4ADDRqXZQ-zMWjjHX7WN-248" value="강의시간" style="ellipse;whiteSpace=wrap;html=1;" vertex="1" parent="1">
          <mxGeometry x="265" y="1490" width="50" height="40" as="geometry" />
        </mxCell>
        <mxCell id="4ADDRqXZQ-zMWjjHX7WN-250" value="&lt;u&gt;S_ID&lt;br&gt;(PK)&lt;br&gt;&lt;/u&gt;" style="ellipse;whiteSpace=wrap;html=1;" vertex="1" parent="1">
          <mxGeometry x="730" y="1490" width="50" height="40" as="geometry" />
        </mxCell>
        <mxCell id="4ADDRqXZQ-zMWjjHX7WN-251" value="이름" style="ellipse;whiteSpace=wrap;html=1;" vertex="1" parent="1">
          <mxGeometry x="780" y="1490" width="50" height="40" as="geometry" />
        </mxCell>
        <mxCell id="4ADDRqXZQ-zMWjjHX7WN-252" value="나이" style="ellipse;whiteSpace=wrap;html=1;" vertex="1" parent="1">
          <mxGeometry x="830" y="1490" width="50" height="40" as="geometry" />
        </mxCell>
        <mxCell id="4ADDRqXZQ-zMWjjHX7WN-253" value="연락처" style="ellipse;whiteSpace=wrap;html=1;" vertex="1" parent="1">
          <mxGeometry x="880" y="1490" width="50" height="40" as="geometry" />
        </mxCell>
        <mxCell id="4ADDRqXZQ-zMWjjHX7WN-260" value="S_ID&lt;br&gt;(FK)" style="ellipse;whiteSpace=wrap;html=1;" vertex="1" parent="1">
          <mxGeometry x="450" y="1490" width="50" height="40" as="geometry" />
        </mxCell>
        <mxCell id="4ADDRqXZQ-zMWjjHX7WN-261" value="L_ID&lt;br&gt;(FK)" style="ellipse;whiteSpace=wrap;html=1;" vertex="1" parent="1">
          <mxGeometry x="500" y="1490" width="50" height="40" as="geometry" />
        </mxCell>
        <mxCell id="4ADDRqXZQ-zMWjjHX7WN-262" value="&lt;u&gt;R_ID&lt;br&gt;(PK)&lt;br&gt;&lt;/u&gt;" style="ellipse;whiteSpace=wrap;html=1;" vertex="1" parent="1">
          <mxGeometry x="400" y="1490" width="50" height="40" as="geometry" />
        </mxCell>
        <mxCell id="4ADDRqXZQ-zMWjjHX7WN-263" value="R_Date" style="ellipse;whiteSpace=wrap;html=1;" vertex="1" parent="1">
          <mxGeometry x="550" y="1490" width="50" height="40" as="geometry" />
        </mxCell>
        <mxCell id="4ADDRqXZQ-zMWjjHX7WN-264" value="N:M관계에서는 관계형 테이블을 만드는 것을 기본으로 한다." style="text;html=1;strokeColor=none;fillColor=none;align=center;verticalAlign=middle;whiteSpace=wrap;rounded=0;" vertex="1" parent="1">
          <mxGeometry x="325" y="1350" width="355" height="30" as="geometry" />
        </mxCell>
        <mxCell id="4ADDRqXZQ-zMWjjHX7WN-265" value="누가? 무엇을?" style="text;html=1;strokeColor=none;fillColor=none;align=center;verticalAlign=middle;whiteSpace=wrap;rounded=0;" vertex="1" parent="1">
          <mxGeometry x="520" y="1450" width="80" height="30" as="geometry" />
        </mxCell>
        <mxCell id="4ADDRqXZQ-zMWjjHX7WN-298" value="" style="edgeStyle=orthogonalEdgeStyle;rounded=0;orthogonalLoop=1;jettySize=auto;html=1;endArrow=ERoneToMany;endFill=0;startArrow=ERone;startFill=0;" edge="1" parent="1" source="4ADDRqXZQ-zMWjjHX7WN-266" target="4ADDRqXZQ-zMWjjHX7WN-285">
          <mxGeometry relative="1" as="geometry" />
        </mxCell>
        <mxCell id="4ADDRqXZQ-zMWjjHX7WN-266" value="강의" style="shape=table;startSize=30;container=1;collapsible=1;childLayout=tableLayout;fixedRows=1;rowLines=0;fontStyle=1;align=center;resizeLast=1;html=1;" vertex="1" parent="1">
          <mxGeometry x="100" y="1610" width="180" height="180" as="geometry" />
        </mxCell>
        <mxCell id="4ADDRqXZQ-zMWjjHX7WN-267" value="" style="shape=tableRow;horizontal=0;startSize=0;swimlaneHead=0;swimlaneBody=0;fillColor=none;collapsible=0;dropTarget=0;points=[[0,0.5],[1,0.5]];portConstraint=eastwest;top=0;left=0;right=0;bottom=1;" vertex="1" parent="4ADDRqXZQ-zMWjjHX7WN-266">
          <mxGeometry y="30" width="180" height="30" as="geometry" />
        </mxCell>
        <mxCell id="4ADDRqXZQ-zMWjjHX7WN-268" value="PK" style="shape=partialRectangle;connectable=0;fillColor=none;top=0;left=0;bottom=0;right=0;fontStyle=1;overflow=hidden;whiteSpace=wrap;html=1;" vertex="1" parent="4ADDRqXZQ-zMWjjHX7WN-267">
          <mxGeometry width="30" height="30" as="geometry">
            <mxRectangle width="30" height="30" as="alternateBounds" />
          </mxGeometry>
        </mxCell>
        <mxCell id="4ADDRqXZQ-zMWjjHX7WN-269" value="L_ID" style="shape=partialRectangle;connectable=0;fillColor=none;top=0;left=0;bottom=0;right=0;align=left;spacingLeft=6;fontStyle=5;overflow=hidden;whiteSpace=wrap;html=1;" vertex="1" parent="4ADDRqXZQ-zMWjjHX7WN-267">
          <mxGeometry x="30" width="150" height="30" as="geometry">
            <mxRectangle width="150" height="30" as="alternateBounds" />
          </mxGeometry>
        </mxCell>
        <mxCell id="4ADDRqXZQ-zMWjjHX7WN-270" value="" style="shape=tableRow;horizontal=0;startSize=0;swimlaneHead=0;swimlaneBody=0;fillColor=none;collapsible=0;dropTarget=0;points=[[0,0.5],[1,0.5]];portConstraint=eastwest;top=0;left=0;right=0;bottom=0;" vertex="1" parent="4ADDRqXZQ-zMWjjHX7WN-266">
          <mxGeometry y="60" width="180" height="30" as="geometry" />
        </mxCell>
        <mxCell id="4ADDRqXZQ-zMWjjHX7WN-271" value="" style="shape=partialRectangle;connectable=0;fillColor=none;top=0;left=0;bottom=0;right=0;editable=1;overflow=hidden;whiteSpace=wrap;html=1;" vertex="1" parent="4ADDRqXZQ-zMWjjHX7WN-270">
          <mxGeometry width="30" height="30" as="geometry">
            <mxRectangle width="30" height="30" as="alternateBounds" />
          </mxGeometry>
        </mxCell>
        <mxCell id="4ADDRqXZQ-zMWjjHX7WN-272" value="강의명" style="shape=partialRectangle;connectable=0;fillColor=none;top=0;left=0;bottom=0;right=0;align=left;spacingLeft=6;overflow=hidden;whiteSpace=wrap;html=1;" vertex="1" parent="4ADDRqXZQ-zMWjjHX7WN-270">
          <mxGeometry x="30" width="150" height="30" as="geometry">
            <mxRectangle width="150" height="30" as="alternateBounds" />
          </mxGeometry>
        </mxCell>
        <mxCell id="4ADDRqXZQ-zMWjjHX7WN-273" value="" style="shape=tableRow;horizontal=0;startSize=0;swimlaneHead=0;swimlaneBody=0;fillColor=none;collapsible=0;dropTarget=0;points=[[0,0.5],[1,0.5]];portConstraint=eastwest;top=0;left=0;right=0;bottom=0;" vertex="1" parent="4ADDRqXZQ-zMWjjHX7WN-266">
          <mxGeometry y="90" width="180" height="30" as="geometry" />
        </mxCell>
        <mxCell id="4ADDRqXZQ-zMWjjHX7WN-274" value="" style="shape=partialRectangle;connectable=0;fillColor=none;top=0;left=0;bottom=0;right=0;editable=1;overflow=hidden;whiteSpace=wrap;html=1;" vertex="1" parent="4ADDRqXZQ-zMWjjHX7WN-273">
          <mxGeometry width="30" height="30" as="geometry">
            <mxRectangle width="30" height="30" as="alternateBounds" />
          </mxGeometry>
        </mxCell>
        <mxCell id="4ADDRqXZQ-zMWjjHX7WN-275" value="강의장명" style="shape=partialRectangle;connectable=0;fillColor=none;top=0;left=0;bottom=0;right=0;align=left;spacingLeft=6;overflow=hidden;whiteSpace=wrap;html=1;" vertex="1" parent="4ADDRqXZQ-zMWjjHX7WN-273">
          <mxGeometry x="30" width="150" height="30" as="geometry">
            <mxRectangle width="150" height="30" as="alternateBounds" />
          </mxGeometry>
        </mxCell>
        <mxCell id="4ADDRqXZQ-zMWjjHX7WN-319" value="" style="shape=tableRow;horizontal=0;startSize=0;swimlaneHead=0;swimlaneBody=0;fillColor=none;collapsible=0;dropTarget=0;points=[[0,0.5],[1,0.5]];portConstraint=eastwest;top=0;left=0;right=0;bottom=0;" vertex="1" parent="4ADDRqXZQ-zMWjjHX7WN-266">
          <mxGeometry y="120" width="180" height="30" as="geometry" />
        </mxCell>
        <mxCell id="4ADDRqXZQ-zMWjjHX7WN-320" value="" style="shape=partialRectangle;connectable=0;fillColor=none;top=0;left=0;bottom=0;right=0;editable=1;overflow=hidden;whiteSpace=wrap;html=1;" vertex="1" parent="4ADDRqXZQ-zMWjjHX7WN-319">
          <mxGeometry width="30" height="30" as="geometry">
            <mxRectangle width="30" height="30" as="alternateBounds" />
          </mxGeometry>
        </mxCell>
        <mxCell id="4ADDRqXZQ-zMWjjHX7WN-321" value="강사명" style="shape=partialRectangle;connectable=0;fillColor=none;top=0;left=0;bottom=0;right=0;align=left;spacingLeft=6;overflow=hidden;whiteSpace=wrap;html=1;" vertex="1" parent="4ADDRqXZQ-zMWjjHX7WN-319">
          <mxGeometry x="30" width="150" height="30" as="geometry">
            <mxRectangle width="150" height="30" as="alternateBounds" />
          </mxGeometry>
        </mxCell>
        <mxCell id="4ADDRqXZQ-zMWjjHX7WN-276" value="" style="shape=tableRow;horizontal=0;startSize=0;swimlaneHead=0;swimlaneBody=0;fillColor=none;collapsible=0;dropTarget=0;points=[[0,0.5],[1,0.5]];portConstraint=eastwest;top=0;left=0;right=0;bottom=0;" vertex="1" parent="4ADDRqXZQ-zMWjjHX7WN-266">
          <mxGeometry y="150" width="180" height="30" as="geometry" />
        </mxCell>
        <mxCell id="4ADDRqXZQ-zMWjjHX7WN-277" value="" style="shape=partialRectangle;connectable=0;fillColor=none;top=0;left=0;bottom=0;right=0;editable=1;overflow=hidden;whiteSpace=wrap;html=1;" vertex="1" parent="4ADDRqXZQ-zMWjjHX7WN-276">
          <mxGeometry width="30" height="30" as="geometry">
            <mxRectangle width="30" height="30" as="alternateBounds" />
          </mxGeometry>
        </mxCell>
        <mxCell id="4ADDRqXZQ-zMWjjHX7WN-278" value="강의시간" style="shape=partialRectangle;connectable=0;fillColor=none;top=0;left=0;bottom=0;right=0;align=left;spacingLeft=6;overflow=hidden;whiteSpace=wrap;html=1;" vertex="1" parent="4ADDRqXZQ-zMWjjHX7WN-276">
          <mxGeometry x="30" width="150" height="30" as="geometry">
            <mxRectangle width="150" height="30" as="alternateBounds" />
          </mxGeometry>
        </mxCell>
        <mxCell id="4ADDRqXZQ-zMWjjHX7WN-318" value="" style="edgeStyle=orthogonalEdgeStyle;rounded=0;orthogonalLoop=1;jettySize=auto;html=1;startArrow=ERoneToMany;startFill=0;endArrow=ERone;endFill=0;" edge="1" parent="1" source="4ADDRqXZQ-zMWjjHX7WN-285" target="4ADDRqXZQ-zMWjjHX7WN-305">
          <mxGeometry relative="1" as="geometry" />
        </mxCell>
        <mxCell id="4ADDRqXZQ-zMWjjHX7WN-285" value="수강신청" style="shape=table;startSize=30;container=1;collapsible=1;childLayout=tableLayout;fixedRows=1;rowLines=0;fontStyle=1;align=center;resizeLast=1;html=1;" vertex="1" parent="1">
          <mxGeometry x="412.5" y="1625" width="180" height="150" as="geometry" />
        </mxCell>
        <mxCell id="4ADDRqXZQ-zMWjjHX7WN-286" value="" style="shape=tableRow;horizontal=0;startSize=0;swimlaneHead=0;swimlaneBody=0;fillColor=none;collapsible=0;dropTarget=0;points=[[0,0.5],[1,0.5]];portConstraint=eastwest;top=0;left=0;right=0;bottom=1;" vertex="1" parent="4ADDRqXZQ-zMWjjHX7WN-285">
          <mxGeometry y="30" width="180" height="30" as="geometry" />
        </mxCell>
        <mxCell id="4ADDRqXZQ-zMWjjHX7WN-287" value="PK" style="shape=partialRectangle;connectable=0;fillColor=none;top=0;left=0;bottom=0;right=0;fontStyle=1;overflow=hidden;whiteSpace=wrap;html=1;" vertex="1" parent="4ADDRqXZQ-zMWjjHX7WN-286">
          <mxGeometry width="30" height="30" as="geometry">
            <mxRectangle width="30" height="30" as="alternateBounds" />
          </mxGeometry>
        </mxCell>
        <mxCell id="4ADDRqXZQ-zMWjjHX7WN-288" value="R_ID" style="shape=partialRectangle;connectable=0;fillColor=none;top=0;left=0;bottom=0;right=0;align=left;spacingLeft=6;fontStyle=5;overflow=hidden;whiteSpace=wrap;html=1;" vertex="1" parent="4ADDRqXZQ-zMWjjHX7WN-286">
          <mxGeometry x="30" width="150" height="30" as="geometry">
            <mxRectangle width="150" height="30" as="alternateBounds" />
          </mxGeometry>
        </mxCell>
        <mxCell id="4ADDRqXZQ-zMWjjHX7WN-322" value="" style="shape=tableRow;horizontal=0;startSize=0;swimlaneHead=0;swimlaneBody=0;fillColor=none;collapsible=0;dropTarget=0;points=[[0,0.5],[1,0.5]];portConstraint=eastwest;top=0;left=0;right=0;bottom=1;" vertex="1" parent="4ADDRqXZQ-zMWjjHX7WN-285">
          <mxGeometry y="60" width="180" height="30" as="geometry" />
        </mxCell>
        <mxCell id="4ADDRqXZQ-zMWjjHX7WN-323" value="FK" style="shape=partialRectangle;connectable=0;fillColor=none;top=0;left=0;bottom=0;right=0;fontStyle=1;overflow=hidden;whiteSpace=wrap;html=1;" vertex="1" parent="4ADDRqXZQ-zMWjjHX7WN-322">
          <mxGeometry width="30" height="30" as="geometry">
            <mxRectangle width="30" height="30" as="alternateBounds" />
          </mxGeometry>
        </mxCell>
        <mxCell id="4ADDRqXZQ-zMWjjHX7WN-324" value="S_ID" style="shape=partialRectangle;connectable=0;fillColor=none;top=0;left=0;bottom=0;right=0;align=left;spacingLeft=6;fontStyle=1;overflow=hidden;whiteSpace=wrap;html=1;" vertex="1" parent="4ADDRqXZQ-zMWjjHX7WN-322">
          <mxGeometry x="30" width="150" height="30" as="geometry">
            <mxRectangle width="150" height="30" as="alternateBounds" />
          </mxGeometry>
        </mxCell>
        <mxCell id="4ADDRqXZQ-zMWjjHX7WN-325" value="" style="shape=tableRow;horizontal=0;startSize=0;swimlaneHead=0;swimlaneBody=0;fillColor=none;collapsible=0;dropTarget=0;points=[[0,0.5],[1,0.5]];portConstraint=eastwest;top=0;left=0;right=0;bottom=1;" vertex="1" parent="4ADDRqXZQ-zMWjjHX7WN-285">
          <mxGeometry y="90" width="180" height="30" as="geometry" />
        </mxCell>
        <mxCell id="4ADDRqXZQ-zMWjjHX7WN-326" value="FK" style="shape=partialRectangle;connectable=0;fillColor=none;top=0;left=0;bottom=0;right=0;fontStyle=1;overflow=hidden;whiteSpace=wrap;html=1;" vertex="1" parent="4ADDRqXZQ-zMWjjHX7WN-325">
          <mxGeometry width="30" height="30" as="geometry">
            <mxRectangle width="30" height="30" as="alternateBounds" />
          </mxGeometry>
        </mxCell>
        <mxCell id="4ADDRqXZQ-zMWjjHX7WN-327" value="L_ID" style="shape=partialRectangle;connectable=0;fillColor=none;top=0;left=0;bottom=0;right=0;align=left;spacingLeft=6;fontStyle=1;overflow=hidden;whiteSpace=wrap;html=1;" vertex="1" parent="4ADDRqXZQ-zMWjjHX7WN-325">
          <mxGeometry x="30" width="150" height="30" as="geometry">
            <mxRectangle width="150" height="30" as="alternateBounds" />
          </mxGeometry>
        </mxCell>
        <mxCell id="4ADDRqXZQ-zMWjjHX7WN-295" value="" style="shape=tableRow;horizontal=0;startSize=0;swimlaneHead=0;swimlaneBody=0;fillColor=none;collapsible=0;dropTarget=0;points=[[0,0.5],[1,0.5]];portConstraint=eastwest;top=0;left=0;right=0;bottom=0;" vertex="1" parent="4ADDRqXZQ-zMWjjHX7WN-285">
          <mxGeometry y="120" width="180" height="30" as="geometry" />
        </mxCell>
        <mxCell id="4ADDRqXZQ-zMWjjHX7WN-296" value="" style="shape=partialRectangle;connectable=0;fillColor=none;top=0;left=0;bottom=0;right=0;editable=1;overflow=hidden;whiteSpace=wrap;html=1;" vertex="1" parent="4ADDRqXZQ-zMWjjHX7WN-295">
          <mxGeometry width="30" height="30" as="geometry">
            <mxRectangle width="30" height="30" as="alternateBounds" />
          </mxGeometry>
        </mxCell>
        <mxCell id="4ADDRqXZQ-zMWjjHX7WN-297" value="R_Date" style="shape=partialRectangle;connectable=0;fillColor=none;top=0;left=0;bottom=0;right=0;align=left;spacingLeft=6;overflow=hidden;whiteSpace=wrap;html=1;" vertex="1" parent="4ADDRqXZQ-zMWjjHX7WN-295">
          <mxGeometry x="30" width="150" height="30" as="geometry">
            <mxRectangle width="150" height="30" as="alternateBounds" />
          </mxGeometry>
        </mxCell>
        <mxCell id="4ADDRqXZQ-zMWjjHX7WN-305" value="학생" style="shape=table;startSize=30;container=1;collapsible=1;childLayout=tableLayout;fixedRows=1;rowLines=0;fontStyle=1;align=center;resizeLast=1;html=1;" vertex="1" parent="1">
          <mxGeometry x="730" y="1625" width="180" height="150" as="geometry" />
        </mxCell>
        <mxCell id="4ADDRqXZQ-zMWjjHX7WN-306" value="" style="shape=tableRow;horizontal=0;startSize=0;swimlaneHead=0;swimlaneBody=0;fillColor=none;collapsible=0;dropTarget=0;points=[[0,0.5],[1,0.5]];portConstraint=eastwest;top=0;left=0;right=0;bottom=1;" vertex="1" parent="4ADDRqXZQ-zMWjjHX7WN-305">
          <mxGeometry y="30" width="180" height="30" as="geometry" />
        </mxCell>
        <mxCell id="4ADDRqXZQ-zMWjjHX7WN-307" value="PK" style="shape=partialRectangle;connectable=0;fillColor=none;top=0;left=0;bottom=0;right=0;fontStyle=1;overflow=hidden;whiteSpace=wrap;html=1;" vertex="1" parent="4ADDRqXZQ-zMWjjHX7WN-306">
          <mxGeometry width="30" height="30" as="geometry">
            <mxRectangle width="30" height="30" as="alternateBounds" />
          </mxGeometry>
        </mxCell>
        <mxCell id="4ADDRqXZQ-zMWjjHX7WN-308" value="S_ID" style="shape=partialRectangle;connectable=0;fillColor=none;top=0;left=0;bottom=0;right=0;align=left;spacingLeft=6;fontStyle=5;overflow=hidden;whiteSpace=wrap;html=1;" vertex="1" parent="4ADDRqXZQ-zMWjjHX7WN-306">
          <mxGeometry x="30" width="150" height="30" as="geometry">
            <mxRectangle width="150" height="30" as="alternateBounds" />
          </mxGeometry>
        </mxCell>
        <mxCell id="4ADDRqXZQ-zMWjjHX7WN-309" value="" style="shape=tableRow;horizontal=0;startSize=0;swimlaneHead=0;swimlaneBody=0;fillColor=none;collapsible=0;dropTarget=0;points=[[0,0.5],[1,0.5]];portConstraint=eastwest;top=0;left=0;right=0;bottom=0;" vertex="1" parent="4ADDRqXZQ-zMWjjHX7WN-305">
          <mxGeometry y="60" width="180" height="30" as="geometry" />
        </mxCell>
        <mxCell id="4ADDRqXZQ-zMWjjHX7WN-310" value="" style="shape=partialRectangle;connectable=0;fillColor=none;top=0;left=0;bottom=0;right=0;editable=1;overflow=hidden;whiteSpace=wrap;html=1;" vertex="1" parent="4ADDRqXZQ-zMWjjHX7WN-309">
          <mxGeometry width="30" height="30" as="geometry">
            <mxRectangle width="30" height="30" as="alternateBounds" />
          </mxGeometry>
        </mxCell>
        <mxCell id="4ADDRqXZQ-zMWjjHX7WN-311" value="이름" style="shape=partialRectangle;connectable=0;fillColor=none;top=0;left=0;bottom=0;right=0;align=left;spacingLeft=6;overflow=hidden;whiteSpace=wrap;html=1;" vertex="1" parent="4ADDRqXZQ-zMWjjHX7WN-309">
          <mxGeometry x="30" width="150" height="30" as="geometry">
            <mxRectangle width="150" height="30" as="alternateBounds" />
          </mxGeometry>
        </mxCell>
        <mxCell id="4ADDRqXZQ-zMWjjHX7WN-312" value="" style="shape=tableRow;horizontal=0;startSize=0;swimlaneHead=0;swimlaneBody=0;fillColor=none;collapsible=0;dropTarget=0;points=[[0,0.5],[1,0.5]];portConstraint=eastwest;top=0;left=0;right=0;bottom=0;" vertex="1" parent="4ADDRqXZQ-zMWjjHX7WN-305">
          <mxGeometry y="90" width="180" height="30" as="geometry" />
        </mxCell>
        <mxCell id="4ADDRqXZQ-zMWjjHX7WN-313" value="" style="shape=partialRectangle;connectable=0;fillColor=none;top=0;left=0;bottom=0;right=0;editable=1;overflow=hidden;whiteSpace=wrap;html=1;" vertex="1" parent="4ADDRqXZQ-zMWjjHX7WN-312">
          <mxGeometry width="30" height="30" as="geometry">
            <mxRectangle width="30" height="30" as="alternateBounds" />
          </mxGeometry>
        </mxCell>
        <mxCell id="4ADDRqXZQ-zMWjjHX7WN-314" value="나이" style="shape=partialRectangle;connectable=0;fillColor=none;top=0;left=0;bottom=0;right=0;align=left;spacingLeft=6;overflow=hidden;whiteSpace=wrap;html=1;" vertex="1" parent="4ADDRqXZQ-zMWjjHX7WN-312">
          <mxGeometry x="30" width="150" height="30" as="geometry">
            <mxRectangle width="150" height="30" as="alternateBounds" />
          </mxGeometry>
        </mxCell>
        <mxCell id="4ADDRqXZQ-zMWjjHX7WN-315" value="" style="shape=tableRow;horizontal=0;startSize=0;swimlaneHead=0;swimlaneBody=0;fillColor=none;collapsible=0;dropTarget=0;points=[[0,0.5],[1,0.5]];portConstraint=eastwest;top=0;left=0;right=0;bottom=0;" vertex="1" parent="4ADDRqXZQ-zMWjjHX7WN-305">
          <mxGeometry y="120" width="180" height="30" as="geometry" />
        </mxCell>
        <mxCell id="4ADDRqXZQ-zMWjjHX7WN-316" value="" style="shape=partialRectangle;connectable=0;fillColor=none;top=0;left=0;bottom=0;right=0;editable=1;overflow=hidden;whiteSpace=wrap;html=1;" vertex="1" parent="4ADDRqXZQ-zMWjjHX7WN-315">
          <mxGeometry width="30" height="30" as="geometry">
            <mxRectangle width="30" height="30" as="alternateBounds" />
          </mxGeometry>
        </mxCell>
        <mxCell id="4ADDRqXZQ-zMWjjHX7WN-317" value="연락처" style="shape=partialRectangle;connectable=0;fillColor=none;top=0;left=0;bottom=0;right=0;align=left;spacingLeft=6;overflow=hidden;whiteSpace=wrap;html=1;" vertex="1" parent="4ADDRqXZQ-zMWjjHX7WN-315">
          <mxGeometry x="30" width="150" height="30" as="geometry">
            <mxRectangle width="150" height="30" as="alternateBounds" />
          </mxGeometry>
        </mxCell>
      </root>
    </mxGraphModel>
  </diagram>
</mxfile>
